<svg width="162" height="162" viewBox="0 0 162 162" fill="none" xmlns="http://www.w3.org/2000/svg">
<path d="M160.961 50.2813V20C160.961 9.50659 152.455 1 141.961 1H20C9.50659 1 1 9.5066 1 20V29.4189M160.961 50.2813C161.254 38.6728 160.014 14.3388 152.718 9.87064C143.597 4.28542 140.089 3.29979 134.301 3.13552C129.671 3.00411 77.5312 3.08077 52.0403 3.13552C48.5324 3.51882 40.1485 5.20534 34.6761 8.88501M160.961 50.2813V120.097M34.6761 8.88501C27.8356 13.4846 21.8722 18.6965 18.3642 21.5339M34.6761 8.88501C36.1962 6.96852 38.3243 1 34.6761 1M18.3642 21.5339C16.9596 22.67 17.0638 26.6185 17.7839 30.537C18.3466 33.5985 14.0562 37.7293 11.509 39.5185V39.5185C9.40427 40.997 1 44.8993 1 51.963M18.3642 21.5339C15.7918 23.6146 9.73474 28.4333 6.08649 31.0616C1.52619 34.347 1 32.3758 1 29.4189M1 51.963V29.4189M1 51.963V126.339M1 126.339C1.87698 132.362 5.06457 144.517 7.84046 147.694C10.9976 151.308 16.4349 157.879 45.3753 158.207C68.5276 158.47 116.294 158.317 137.283 158.207H150.336C153.706 158.207 156.839 156.936 157.823 153.712C159.409 148.513 160.961 138.302 160.961 120.097M1 126.339V142C1 152.493 9.50659 161 20 161H141.961C152.455 161 160.961 152.493 160.961 142C160.961 133.26 160.961 125.586 160.961 120.097" stroke="#395DF6" stroke-linejoin="round"/>
</svg>
