<svg width="1658" height="492" viewBox="0 0 1658 492" fill="none" xmlns="http://www.w3.org/2000/svg">
<path d="M20 1H349.547H1637.6C1648.09 1 1656.6 9.50659 1656.6 20V131.692C1657.17 139.193 1657.1 146.084 1656.6 151.924V365.733V471.999C1656.6 482.492 1648.09 491 1637.6 491H20C9.50663 491 1 482.493 1 472V384.85V157.074V88.0329V20C1 9.50657 9.50659 1 20 1Z" fill="black"/>
<path d="M1656.6 151.924V20C1656.6 9.50659 1648.09 1 1637.6 1H20C9.50659 1 1 9.50657 1 20V88.0329M1656.6 151.924C1659.63 116.373 1646.8 41.8501 1571.28 28.1663C1476.88 11.0616 1440.57 8.04312 1380.67 7.54004C1332.74 7.13758 793.098 7.37235 529.267 7.54004C492.96 8.71389 406.186 13.8789 349.547 25.1478M1656.6 151.924V365.733M349.547 25.1478C278.749 39.2341 217.027 55.1954 180.72 63.885C154.095 70.2574 91.4045 85.0144 53.6452 93.0637C6.44605 103.125 1 97.0883 1 88.0329M349.547 25.1478C365.281 19.2786 387.307 1 349.547 1M1 88.0329V157.074V384.85M1 384.85C10.0768 403.296 43.0683 440.519 71.7987 450.251C104.475 461.318 160.751 481.441 460.284 482.448C699.91 483.253 1194.29 482.783 1411.53 482.448H1598.26C1599.35 482.448 1600.43 482.37 1601.49 482.123C1620.84 477.608 1656.6 448.919 1656.6 365.733M1 384.85V472C1 482.493 9.50663 491 20 491H1637.6C1648.09 491 1656.6 482.492 1656.6 471.999C1656.6 429.4 1656.6 390.377 1656.6 365.733" stroke="#395DF6" stroke-linejoin="round"/>
</svg>
