<svg width="168" height="166" viewBox="0 0 168 166" fill="none" xmlns="http://www.w3.org/2000/svg">
<g filter="url(#filter0_f_282_547)">
<path d="M9 56.836V139.757C9 141.413 10.3431 142.757 12 142.757H25.8244C27.4467 142.757 28.775 141.475 28.8209 139.853C29.6001 112.323 30.5651 61.0158 28.7368 54.9062C27.0192 49.1665 16.9539 51.6652 10.7742 54.1479C9.68351 54.586 9 55.6606 9 56.836Z" stroke="#395DF6" stroke-width="4"/>
<path d="M35.8421 122.802V139.757C35.8421 141.413 37.1853 142.757 38.8421 142.757H128.368C130.025 142.757 131.368 141.413 131.368 139.756V122.802C131.368 121.145 130.025 119.802 128.368 119.802H38.8421C37.1853 119.802 35.8421 121.145 35.8421 122.802Z" stroke="#395DF6" stroke-width="4"/>
<path d="M137.684 56.6202V139.757C137.684 141.413 139.027 142.757 140.684 142.757H156C157.657 142.757 159 141.413 159 139.757V56.147C159 55.3524 158.695 54.5737 158.077 54.0744C152.369 49.4625 143.951 51.7618 139.192 54.097C138.239 54.5649 137.684 55.5581 137.684 56.6202Z" stroke="#395DF6" stroke-width="4"/>
<path d="M35.8421 53.3767V108.096C35.8421 109.753 37.1853 111.096 38.8421 111.096H128.368C130.025 111.096 131.368 109.758 131.368 108.101V54.9062C131.368 49.3426 138.688 44.9982 143.677 42.9521C144.812 42.4863 145.635 41.4364 145.647 40.2089C145.851 19.7887 130.993 11.0241 123.004 9.07531C122.788 9.0225 122.582 9 122.359 9H46.1053C29.0526 9 23.2105 23.246 22.4211 30.369V39.2406C22.4211 40.8975 23.7981 42.2271 25.3511 42.8042C29.5868 44.3784 33.443 48.8973 35.3857 51.8167C35.6926 52.278 35.8421 52.8227 35.8421 53.3767Z" stroke="#395DF6" stroke-width="4"/>
<path d="M9 152.086V154C9 155.657 10.3431 157 12 157H25.7368C27.3937 157 28.7368 155.657 28.7368 154V152.086C28.7368 150.429 27.3937 149.086 25.7368 149.086H12C10.3431 149.086 9 150.429 9 152.086Z" stroke="#395DF6" stroke-width="4"/>
<path d="M137.684 152.086V152.417C137.684 154.074 139.027 155.417 140.684 155.417H156C157.657 155.417 159 154.074 159 152.417V152.086C159 150.429 157.657 149.086 156 149.086H140.684C139.027 149.086 137.684 150.429 137.684 152.086Z" stroke="#395DF6" stroke-width="4"/>
</g>
<path d="M9 56.836V139.757C9 141.413 10.3431 142.757 12 142.757H25.8244C27.4467 142.757 28.775 141.475 28.8209 139.853C29.6001 112.323 30.5651 61.0158 28.7368 54.9062C27.0192 49.1665 16.9539 51.6652 10.7742 54.1479C9.68351 54.586 9 55.6606 9 56.836Z" stroke="#395DF6"/>
<path d="M35.8421 122.802V139.757C35.8421 141.413 37.1853 142.757 38.8421 142.757H128.368C130.025 142.757 131.368 141.413 131.368 139.756V122.802C131.368 121.145 130.025 119.802 128.368 119.802H38.8421C37.1853 119.802 35.8421 121.145 35.8421 122.802Z" stroke="#395DF6"/>
<path d="M137.684 56.6202V139.757C137.684 141.413 139.027 142.757 140.684 142.757H156C157.657 142.757 159 141.413 159 139.757V56.147C159 55.3524 158.695 54.5737 158.077 54.0744C152.369 49.4625 143.951 51.7618 139.192 54.097C138.239 54.5649 137.684 55.5581 137.684 56.6202Z" stroke="#395DF6"/>
<path d="M35.8421 53.3767V108.096C35.8421 109.753 37.1853 111.096 38.8421 111.096H128.368C130.025 111.096 131.368 109.758 131.368 108.101V54.9062C131.368 49.3426 138.688 44.9982 143.677 42.9521C144.812 42.4863 145.635 41.4364 145.647 40.2089C145.851 19.7887 130.993 11.0241 123.004 9.07531C122.788 9.0225 122.582 9 122.359 9H46.1053C29.0526 9 23.2105 23.246 22.4211 30.369V39.2406C22.4211 40.8975 23.7981 42.2271 25.3511 42.8042C29.5868 44.3784 33.443 48.8973 35.3857 51.8167C35.6926 52.278 35.8421 52.8227 35.8421 53.3767Z" stroke="#395DF6"/>
<path d="M9 152.086V154C9 155.657 10.3431 157 12 157H25.7368C27.3937 157 28.7368 155.657 28.7368 154V152.086C28.7368 150.429 27.3937 149.086 25.7368 149.086H12C10.3431 149.086 9 150.429 9 152.086Z" stroke="#395DF6"/>
<path d="M137.684 152.086V152.417C137.684 154.074 139.027 155.417 140.684 155.417H156C157.657 155.417 159 154.074 159 152.417V152.086C159 150.429 157.657 149.086 156 149.086H140.684C139.027 149.086 137.684 150.429 137.684 152.086Z" stroke="#395DF6"/>
<defs>
<filter id="filter0_f_282_547" x="0.3" y="0.3" width="167.4" height="165.4" filterUnits="userSpaceOnUse" color-interpolation-filters="sRGB">
<feFlood flood-opacity="0" result="BackgroundImageFix"/>
<feBlend mode="normal" in="SourceGraphic" in2="BackgroundImageFix" result="shape"/>
<feGaussianBlur stdDeviation="3.35" result="effect1_foregroundBlur_282_547"/>
</filter>
</defs>
</svg>
