<svg width="296" height="175" viewBox="0 0 296 175" fill="none" xmlns="http://www.w3.org/2000/svg">
<g filter="url(#filter0_f_282_548)">
<path d="M9 139.187V163.002C9 164.658 10.3431 166.002 12 166.002H24.4217C26.0785 166.002 27.4217 164.658 27.4217 163.002V139.187C27.4217 137.53 26.0785 136.187 24.4217 136.187H12C10.3431 136.187 9 137.53 9 139.187Z" stroke="#395DF6" stroke-width="4"/>
<path d="M9 83.6006V125.102C9 126.759 10.3431 128.102 12 128.102H284C285.657 128.102 287 126.759 287 125.102V83.6006C287 81.9438 285.657 80.6006 284 80.6006H12C10.3431 80.6006 9 81.9438 9 83.6006Z" stroke="#395DF6" stroke-width="4"/>
<path d="M276 28.0462C276 3 22.5 1.50072 22.5 28.0462V70.0194C22.5 71.6763 23.8431 73.0194 25.5 73.0194H48.7048C50.3617 73.0194 51.7048 71.6763 51.7048 70.0194V57.3222C51.7048 55.6653 53.048 54.3222 54.7048 54.3222H132.44C134.097 54.3222 135.44 55.6653 135.44 57.3222V70.0194C135.44 71.6763 136.783 73.0194 138.44 73.0194H159.5C161.157 73.0194 162.5 71.6763 162.5 70.0194V57.3222C162.5 55.6653 163.843 54.3222 165.5 54.3222H247C248.657 54.3222 250 55.6653 250 57.3222V70.0194C250 71.6763 251.343 73.0194 253 73.0194H273C274.657 73.0194 276 71.6763 276 70.0194V28.0462Z" stroke="#395DF6" stroke-width="4"/>
<path d="M287 163.002V139.187C287 137.53 285.657 136.187 284 136.187H270.741C269.084 136.187 267.741 137.53 267.741 139.187V163.002C267.741 164.658 269.084 166.002 270.741 166.002H284C285.657 166.002 287 164.658 287 163.002Z" stroke="#395DF6" stroke-width="4"/>
</g>
<path d="M9 139.187V163.002C9 164.658 10.3431 166.002 12 166.002H24.4217C26.0785 166.002 27.4217 164.658 27.4217 163.002V139.187C27.4217 137.53 26.0785 136.187 24.4217 136.187H12C10.3431 136.187 9 137.53 9 139.187Z" stroke="#395DF6"/>
<path d="M9 83.6006V125.102C9 126.759 10.3431 128.102 12 128.102H284C285.657 128.102 287 126.759 287 125.102V83.6006C287 81.9438 285.657 80.6006 284 80.6006H12C10.3431 80.6006 9 81.9438 9 83.6006Z" stroke="#395DF6"/>
<path d="M276 28.0462C276 3 22.5 1.50072 22.5 28.0462V70.0194C22.5 71.6763 23.8431 73.0194 25.5 73.0194H48.7048C50.3617 73.0194 51.7048 71.6763 51.7048 70.0194V57.3222C51.7048 55.6653 53.048 54.3222 54.7048 54.3222H132.44C134.097 54.3222 135.44 55.6653 135.44 57.3222V70.0194C135.44 71.6763 136.783 73.0194 138.44 73.0194H159.5C161.157 73.0194 162.5 71.6763 162.5 70.0194V57.3222C162.5 55.6653 163.843 54.3222 165.5 54.3222H247C248.657 54.3222 250 55.6653 250 57.3222V70.0194C250 71.6763 251.343 73.0194 253 73.0194H273C274.657 73.0194 276 71.6763 276 70.0194V28.0462Z" stroke="#395DF6"/>
<path d="M287 163.002V139.187C287 137.53 285.657 136.187 284 136.187H270.741C269.084 136.187 267.741 137.53 267.741 139.187V163.002C267.741 164.658 269.084 166.002 270.741 166.002H284C285.657 166.002 287 164.658 287 163.002Z" stroke="#395DF6"/>
<defs>
<filter id="filter0_f_282_548" x="0.3" y="-0.00468731" width="295.4" height="174.705" filterUnits="userSpaceOnUse" color-interpolation-filters="sRGB">
<feFlood flood-opacity="0" result="BackgroundImageFix"/>
<feBlend mode="normal" in="SourceGraphic" in2="BackgroundImageFix" result="shape"/>
<feGaussianBlur stdDeviation="3.35" result="effect1_foregroundBlur_282_548"/>
</filter>
</defs>
</svg>
