<svg width="100" height="157" viewBox="0 0 100 157" fill="none" xmlns="http://www.w3.org/2000/svg">
<g filter="url(#filter0_f_282_549)">
<path d="M15.4067 118.842V145C15.4067 146.657 16.7499 148 18.4067 148H19.4536C21.1105 148 22.4536 146.657 22.4536 145V118.842C22.4536 117.185 21.1105 115.842 19.4536 115.842H18.4067C16.7499 115.842 15.4067 117.185 15.4067 118.842Z" stroke="#395DF6" stroke-width="4"/>
<path d="M80.9536 115.842H79.2661C77.6093 115.842 76.2661 117.185 76.2661 118.842V145C76.2661 146.657 77.6093 148 79.2661 148H80.9536C82.6105 148 83.9536 146.657 83.9536 145V118.842C83.9536 117.185 82.6105 115.842 80.9536 115.842Z" stroke="#395DF6" stroke-width="4"/>
<path d="M9.00049 95.4548V106.411C9.00049 108.068 10.3436 109.411 12.0005 109.411H88.0005C89.6573 109.411 91.0005 108.068 91.0005 106.411V95.4548C91.0005 93.798 89.6573 92.4548 88.0005 92.4548H12.0005C10.3436 92.4548 9.00049 93.798 9.00049 95.4548Z" stroke="#395DF6" stroke-width="4"/>
<path d="M18.6099 29.8934V84.1926C18.6099 85.8495 19.953 87.1926 21.6099 87.1926H77.1099C78.7667 87.1926 80.1099 85.8495 80.1099 84.1926V29.8934C80.1099 23.471 75.6255 9.00457 49.3599 9C21.813 8.99521 18.6099 22.6823 18.6099 29.8934Z" stroke="#395DF6" stroke-width="4"/>
</g>
<path d="M15.4067 118.842V145C15.4067 146.657 16.7499 148 18.4067 148H19.4536C21.1105 148 22.4536 146.657 22.4536 145V118.842C22.4536 117.185 21.1105 115.842 19.4536 115.842H18.4067C16.7499 115.842 15.4067 117.185 15.4067 118.842Z" stroke="#395DF6"/>
<path d="M80.9536 115.842H79.2661C77.6093 115.842 76.2661 117.185 76.2661 118.842V145C76.2661 146.657 77.6093 148 79.2661 148H80.9536C82.6105 148 83.9536 146.657 83.9536 145V118.842C83.9536 117.185 82.6105 115.842 80.9536 115.842Z" stroke="#395DF6"/>
<path d="M9.00049 95.4548V106.411C9.00049 108.068 10.3436 109.411 12.0005 109.411H88.0005C89.6573 109.411 91.0005 108.068 91.0005 106.411V95.4548C91.0005 93.798 89.6573 92.4548 88.0005 92.4548H12.0005C10.3436 92.4548 9.00049 93.798 9.00049 95.4548Z" stroke="#395DF6"/>
<path d="M18.6099 29.8934V84.1926C18.6099 85.8495 19.953 87.1926 21.6099 87.1926H77.1099C78.7667 87.1926 80.1099 85.8495 80.1099 84.1926V29.8934C80.1099 23.471 75.6255 9.00457 49.3599 9C21.813 8.99521 18.6099 22.6823 18.6099 29.8934Z" stroke="#395DF6"/>
<defs>
<filter id="filter0_f_282_549" x="0.300488" y="0.3" width="99.4" height="156.4" filterUnits="userSpaceOnUse" color-interpolation-filters="sRGB">
<feFlood flood-opacity="0" result="BackgroundImageFix"/>
<feBlend mode="normal" in="SourceGraphic" in2="BackgroundImageFix" result="shape"/>
<feGaussianBlur stdDeviation="3.35" result="effect1_foregroundBlur_282_549"/>
</filter>
</defs>
</svg>
