<svg width="1081" height="419" viewBox="0 0 1081 419" fill="none" xmlns="http://www.w3.org/2000/svg">
<path d="M20 1H228.103H1060.74C1071.23 1 1079.74 9.50659 1079.74 20V112.488C1080.11 118.887 1080.06 124.766 1079.74 129.747V312.14V399.998C1079.74 410.492 1071.23 419 1060.74 419H20C9.50662 419 1 410.493 1 400V328.448V134.141V75.2444V20C1 9.50658 9.50659 1 20 1Z" fill="black"/>
<path d="M1079.74 129.747V20C1079.74 9.50659 1071.23 1 1060.74 1H20C9.50659 1 1 9.50658 1 20V75.2444M1079.74 129.747C1081.71 99.4203 1073.35 35.8476 1024.15 24.1745C962.64 9.58316 938.983 7.00821 899.95 6.57906C868.723 6.23573 517.108 6.436 345.203 6.57906C321.547 7.58043 265.007 11.9864 228.103 21.5996M1079.74 129.747V312.14M228.103 21.5996C181.973 33.616 141.757 47.232 118.1 54.6448M228.103 21.5996C238.354 16.5927 252.706 1 228.103 1M118.1 54.6448V54.6448C108.906 57.5258 85.4892 99.7991 75.9185 100.911C74.3309 101.096 72.9644 101.332 71.8703 101.63C57.6763 105.492 1 115.687 1 134.141M118.1 54.6448C100.752 60.0808 59.9049 72.6694 35.302 79.5359C4.54848 88.1191 1 82.9692 1 75.2444M1 134.141V75.2444M1 134.141V328.448M1 328.448C6.91414 344.183 28.4104 375.937 47.1303 384.238C68.4212 393.68 105.089 410.846 300.256 411.704C456.389 412.391 778.513 411.99 920.058 411.704H1040.67C1042.08 411.704 1043.49 411.588 1044.81 411.092C1057.61 406.297 1079.74 381.292 1079.74 312.14M1 328.448V400C1 410.493 9.50662 419 20 419H1060.74C1071.23 419 1079.74 410.492 1079.74 399.998C1079.74 364.75 1079.74 332.622 1079.74 312.14" stroke="#395DF6" stroke-linejoin="round"/>
</svg>
