<svg width="116" height="157" viewBox="0 0 116 157" fill="none" xmlns="http://www.w3.org/2000/svg">
<g filter="url(#filter0_f_282_545)">
<path d="M30.6185 142.599V145C30.6185 146.657 31.9616 148 33.6185 148H81.0117C82.6686 148 84.0117 146.657 84.0117 145V142.599C84.0117 140.942 82.6686 139.599 81.0117 139.599H65.5061C63.8493 139.599 62.5061 138.256 62.5061 136.599V96.011C62.5061 94.3541 61.163 93.011 59.5061 93.011H56.6072C54.9504 93.011 53.6072 94.3541 53.6072 96.011V136.599C53.6072 138.256 52.2641 139.599 50.6072 139.599H33.6185C31.9616 139.599 30.6185 140.942 30.6185 142.599Z" stroke="#395DF6" stroke-width="4"/>
<path d="M24.1779 11.3717L8.77762 83.2728C8.37764 85.1403 9.80127 86.9011 11.7111 86.9011H103.375C105.257 86.9011 106.674 85.1886 106.322 83.34L92.6334 11.4389C92.364 10.0238 91.1268 9 89.6863 9H27.1114C25.6966 9 24.4742 9.98835 24.1779 11.3717Z" stroke="#395DF6" stroke-width="4"/>
</g>
<path d="M30.6185 142.599V145C30.6185 146.657 31.9616 148 33.6185 148H81.0117C82.6686 148 84.0117 146.657 84.0117 145V142.599C84.0117 140.942 82.6686 139.599 81.0117 139.599H65.5061C63.8493 139.599 62.5061 138.256 62.5061 136.599V96.011C62.5061 94.3541 61.163 93.011 59.5061 93.011H56.6072C54.9504 93.011 53.6072 94.3541 53.6072 96.011V136.599C53.6072 138.256 52.2641 139.599 50.6072 139.599H33.6185C31.9616 139.599 30.6185 140.942 30.6185 142.599Z" stroke="#395DF6"/>
<path d="M24.1779 11.3717L8.77762 83.2728C8.37764 85.1403 9.80127 86.9011 11.7111 86.9011H103.375C105.257 86.9011 106.674 85.1886 106.322 83.34L92.6334 11.4389C92.364 10.0238 91.1268 9 89.6863 9H27.1114C25.6966 9 24.4742 9.98835 24.1779 11.3717Z" stroke="#395DF6"/>
<defs>
<filter id="filter0_f_282_545" x="0.00898457" y="0.3" width="115.068" height="156.4" filterUnits="userSpaceOnUse" color-interpolation-filters="sRGB">
<feFlood flood-opacity="0" result="BackgroundImageFix"/>
<feBlend mode="normal" in="SourceGraphic" in2="BackgroundImageFix" result="shape"/>
<feGaussianBlur stdDeviation="3.35" result="effect1_foregroundBlur_282_545"/>
</filter>
</defs>
</svg>
