<svg width="96" height="166" viewBox="0 0 96 166" fill="none" xmlns="http://www.w3.org/2000/svg">
<g filter="url(#filter0_f_282_542)">
<path d="M49.1295 83.7307H72.452M49.1295 83.7307H28.3151M49.1295 83.7307L35.8383 62.7485M72.452 83.7307H84.2966C86.2041 83.7307 87.6272 85.4875 87.2312 87.3534L72.9562 154.623C72.6621 156.009 71.4384 157 70.0216 157H27.2671C25.8354 157 24.6032 155.988 24.3245 154.584L10.9705 87.3148C10.6022 85.4596 12.0217 83.7307 13.9131 83.7307H28.3151M72.452 83.7307C67.938 75.9446 61.9193 68.4612 55.3989 59.4585M28.3151 83.7307L35.8383 62.7485M35.8383 62.7485L10.259 22.3677C4.74193 11.8335 18.7855 5.4224 24.8041 13.6669C27.8526 17.8429 35.3368 29.2349 43.3618 41.5996M43.3618 41.5996L55.3989 13.6639C59.9131 4.04833 76.4644 10.4596 70.4455 22.3677L55.3989 59.4585M43.3618 41.5996C47.1531 47.82 50.7555 53.0474 55.3989 59.4585" stroke="#395DF6" stroke-width="4"/>
</g>
<path d="M49.1295 83.7307H72.452M49.1295 83.7307H28.3151M49.1295 83.7307L35.8383 62.7485M72.452 83.7307H84.2966C86.2041 83.7307 87.6272 85.4875 87.2312 87.3534L72.9562 154.623C72.6621 156.009 71.4384 157 70.0216 157H27.2671C25.8354 157 24.6032 155.988 24.3245 154.584L10.9705 87.3148C10.6022 85.4596 12.0217 83.7307 13.9131 83.7307H28.3151M72.452 83.7307C67.938 75.9446 61.9193 68.4612 55.3989 59.4585M28.3151 83.7307L35.8383 62.7485M35.8383 62.7485L10.259 22.3677C4.74193 11.8335 18.7855 5.4224 24.8041 13.6669C27.8526 17.8429 35.3368 29.2349 43.3618 41.5996M43.3618 41.5996L55.3989 13.6639C59.9131 4.04833 76.4644 10.4596 70.4455 22.3677L55.3989 59.4585M43.3618 41.5996C47.1531 47.82 50.7555 53.0474 55.3989 59.4585" stroke="#395DF6"/>
<defs>
<filter id="filter0_f_282_542" x="0.299512" y="0.307813" width="95.6988" height="165.392" filterUnits="userSpaceOnUse" color-interpolation-filters="sRGB">
<feFlood flood-opacity="0" result="BackgroundImageFix"/>
<feBlend mode="normal" in="SourceGraphic" in2="BackgroundImageFix" result="shape"/>
<feGaussianBlur stdDeviation="3.35" result="effect1_foregroundBlur_282_542"/>
</filter>
</defs>
</svg>
