<svg width="296" height="157" viewBox="0 0 296 157" fill="none" xmlns="http://www.w3.org/2000/svg">
<g filter="url(#filter0_f_282_544)">
<path d="M9 59.732V124.666L9.00016 129.782C9.00024 131.439 10.3434 132.781 12.0001 132.781H27.3066C28.9634 132.781 30.3066 131.438 30.3066 129.781V59.732C30.3066 51 9 52 9 59.732Z" stroke="#395DF6" stroke-width="4" stroke-linejoin="round"/>
<path d="M9 145V143.898C9 142.241 10.3431 140.898 12 140.898H27.3066C28.9634 140.898 30.3066 142.241 30.3066 143.898V145C30.3066 146.657 28.9634 148 27.3066 148H12C10.3431 148 9 146.657 9 145Z" stroke="#395DF6" stroke-width="4" stroke-linejoin="round"/>
<path d="M24.219 21.1752V40.4963C24.219 42.1532 25.572 43.479 27.2242 43.6031C38.7819 44.4714 40.4526 50.5007 40.4526 56.6861V93.2555C40.4526 94.9123 41.7957 96.2555 43.4526 96.2555H139.927C141.584 96.2555 142.927 94.9123 142.927 93.2555V12C142.927 10.3431 141.588 9 139.931 9H40.4526C29.089 9 24.219 14.5 24.219 21.1752Z" stroke="#395DF6" stroke-width="4" stroke-linejoin="round"/>
<path d="M40.4526 129.781V106.358C40.4526 104.701 41.7957 103.358 43.4526 103.358H252.547C254.204 103.358 255.547 104.701 255.547 106.358V129.781C255.547 131.438 254.204 132.781 252.547 132.781H43.4525C41.7957 132.781 40.4526 131.438 40.4526 129.781Z" stroke="#395DF6" stroke-width="4" stroke-linejoin="round"/>
<path d="M153.038 11.9651L152.094 93.2206C152.074 94.891 153.423 96.2555 155.093 96.2555H254.577C256.233 96.2555 257.577 94.9156 257.577 93.2588V56.6861C257.577 50.4992 264.127 45.3311 269.83 43.8939C271.437 43.4891 272.796 42.1532 272.796 40.4963V21.1752C272.796 13.5 266.708 9 255.547 9H156.038C154.395 9 153.058 10.322 153.038 11.9651Z" stroke="#395DF6" stroke-width="4" stroke-linejoin="round"/>
<path d="M266.708 59.732V129.781C266.708 131.438 268.051 132.781 269.708 132.781H284C285.657 132.781 287 131.438 287 129.781V59.732C287 51 266.708 51 266.708 59.732Z" stroke="#395DF6" stroke-width="4" stroke-linejoin="round"/>
<path d="M266.708 145V143.898C266.708 142.241 268.051 140.898 269.708 140.898H284C285.657 140.898 287 142.241 287 143.898V145C287 146.657 285.657 148 284 148H269.708C268.051 148 266.708 146.657 266.708 145Z" stroke="#395DF6" stroke-width="4" stroke-linejoin="round"/>
</g>
<path d="M9 59.732V124.666L9.00016 129.782C9.00024 131.439 10.3434 132.781 12.0001 132.781H27.3066C28.9634 132.781 30.3066 131.438 30.3066 129.781V59.732C30.3066 51 9 52 9 59.732Z" stroke="#395DF6" stroke-linejoin="round"/>
<path d="M9 145V143.898C9 142.241 10.3431 140.898 12 140.898H27.3066C28.9634 140.898 30.3066 142.241 30.3066 143.898V145C30.3066 146.657 28.9634 148 27.3066 148H12C10.3431 148 9 146.657 9 145Z" stroke="#395DF6" stroke-linejoin="round"/>
<path d="M24.219 21.1752V40.4963C24.219 42.1532 25.572 43.479 27.2242 43.6031C38.7819 44.4714 40.4526 50.5007 40.4526 56.6861V93.2555C40.4526 94.9123 41.7957 96.2555 43.4526 96.2555H139.927C141.584 96.2555 142.927 94.9123 142.927 93.2555V12C142.927 10.3431 141.588 9 139.931 9H40.4526C29.089 9 24.219 14.5 24.219 21.1752Z" stroke="#395DF6" stroke-linejoin="round"/>
<path d="M40.4526 129.781V106.358C40.4526 104.701 41.7957 103.358 43.4526 103.358H252.547C254.204 103.358 255.547 104.701 255.547 106.358V129.781C255.547 131.438 254.204 132.781 252.547 132.781H43.4525C41.7957 132.781 40.4526 131.438 40.4526 129.781Z" stroke="#395DF6" stroke-linejoin="round"/>
<path d="M153.038 11.9651L152.094 93.2206C152.074 94.891 153.423 96.2555 155.093 96.2555H254.577C256.233 96.2555 257.577 94.9156 257.577 93.2588V56.6861C257.577 50.4992 264.127 45.3311 269.83 43.8939C271.437 43.4891 272.796 42.1532 272.796 40.4963V21.1752C272.796 13.5 266.708 9 255.547 9H156.038C154.395 9 153.058 10.322 153.038 11.9651Z" stroke="#395DF6" stroke-linejoin="round"/>
<path d="M266.708 59.732V129.781C266.708 131.438 268.051 132.781 269.708 132.781H284C285.657 132.781 287 131.438 287 129.781V59.732C287 51 266.708 51 266.708 59.732Z" stroke="#395DF6" stroke-linejoin="round"/>
<path d="M266.708 145V143.898C266.708 142.241 268.051 140.898 269.708 140.898H284C285.657 140.898 287 142.241 287 143.898V145C287 146.657 285.657 148 284 148H269.708C268.051 148 266.708 146.657 266.708 145Z" stroke="#395DF6" stroke-linejoin="round"/>
<defs>
<filter id="filter0_f_282_544" x="0.3" y="0.3" width="295.4" height="156.4" filterUnits="userSpaceOnUse" color-interpolation-filters="sRGB">
<feFlood flood-opacity="0" result="BackgroundImageFix"/>
<feBlend mode="normal" in="SourceGraphic" in2="BackgroundImageFix" result="shape"/>
<feGaussianBlur stdDeviation="3.35" result="effect1_foregroundBlur_282_544"/>
</filter>
</defs>
</svg>
