<svg width="192" height="111" viewBox="0 0 192 111" fill="none" xmlns="http://www.w3.org/2000/svg">
<g filter="url(#filter0_f_282_550)">
<path d="M30.5 27V98.5C30.5 100.157 31.8431 101.5 33.5 101.5H37C38.6569 101.5 40 100.157 40 98.5V27C40 25.3431 41.3431 24 43 24H151.5C153.157 24 154.5 25.3431 154.5 27V98.5C154.5 100.157 155.843 101.5 157.5 101.5H160C161.657 101.5 163 100.157 163 98.5V27C163 25.3431 164.343 24 166 24H180C181.657 24 183 22.6569 183 21V12C183 10.3431 181.657 9 180 9H12C10.3431 9 9 10.3431 9 12V21C9 22.6569 10.3431 24 12 24H27.5C29.1569 24 30.5 25.3431 30.5 27Z" stroke="#395DF6" stroke-width="4"/>
</g>
<path d="M30.5 27V98.5C30.5 100.157 31.8431 101.5 33.5 101.5H37C38.6569 101.5 40 100.157 40 98.5V27C40 25.3431 41.3431 24 43 24H151.5C153.157 24 154.5 25.3431 154.5 27V98.5C154.5 100.157 155.843 101.5 157.5 101.5H160C161.657 101.5 163 100.157 163 98.5V27C163 25.3431 164.343 24 166 24H180C181.657 24 183 22.6569 183 21V12C183 10.3431 181.657 9 180 9H12C10.3431 9 9 10.3431 9 12V21C9 22.6569 10.3431 24 12 24H27.5C29.1569 24 30.5 25.3431 30.5 27Z" stroke="#395DF6"/>
<defs>
<filter id="filter0_f_282_550" x="0.3" y="0.3" width="191.4" height="109.9" filterUnits="userSpaceOnUse" color-interpolation-filters="sRGB">
<feFlood flood-opacity="0" result="BackgroundImageFix"/>
<feBlend mode="normal" in="SourceGraphic" in2="BackgroundImageFix" result="shape"/>
<feGaussianBlur stdDeviation="3.35" result="effect1_foregroundBlur_282_550"/>
</filter>
</defs>
</svg>
