<svg width="142" height="166" viewBox="0 0 142 166" fill="none" xmlns="http://www.w3.org/2000/svg">
<g filter="url(#filter0_f_282_541)">
<path d="M70.8263 17.88H20.3361C18.6793 17.88 17.3361 19.2231 17.3361 20.88V82.815M70.8263 17.88H121.317C122.973 17.88 124.317 19.2231 124.317 20.88V82.815M70.8263 17.88V147.75M70.8263 147.75H121.317C122.973 147.75 124.317 146.407 124.317 144.75V82.815M70.8263 147.75H20.3361C18.6793 147.75 17.3361 146.407 17.3361 144.75V82.815M124.317 82.815H17.3361M12 157H130C131.657 157 133 155.657 133 154V12C133 10.3431 131.657 9 130 9H12C10.3431 9 9 10.3431 9 12V154C9 155.657 10.3431 157 12 157Z" stroke="#395DF6" stroke-width="4"/>
</g>
<path d="M70.8263 17.88H20.3361C18.6793 17.88 17.3361 19.2231 17.3361 20.88V82.815M70.8263 17.88H121.317C122.973 17.88 124.317 19.2231 124.317 20.88V82.815M70.8263 17.88V147.75M70.8263 147.75H121.317C122.973 147.75 124.317 146.407 124.317 144.75V82.815M70.8263 147.75H20.3361C18.6793 147.75 17.3361 146.407 17.3361 144.75V82.815M124.317 82.815H17.3361M12 157H130C131.657 157 133 155.657 133 154V12C133 10.3431 131.657 9 130 9H12C10.3431 9 9 10.3431 9 12V154C9 155.657 10.3431 157 12 157Z" stroke="#395DF6"/>
<defs>
<filter id="filter0_f_282_541" x="0.3" y="0.3" width="141.4" height="165.4" filterUnits="userSpaceOnUse" color-interpolation-filters="sRGB">
<feFlood flood-opacity="0" result="BackgroundImageFix"/>
<feBlend mode="normal" in="SourceGraphic" in2="BackgroundImageFix" result="shape"/>
<feGaussianBlur stdDeviation="3.35" result="effect1_foregroundBlur_282_541"/>
</filter>
</defs>
</svg>
