<svg width="613" height="139" viewBox="0 0 613 139" fill="none" xmlns="http://www.w3.org/2000/svg">
<path d="M21 2H130.18H591.853C602.347 2 610.853 10.5066 610.853 21V38.007C611.062 40.0735 611.036 41.9722 610.853 43.5811V102.488V117.998C610.853 128.491 602.347 137 591.853 137H21C10.5066 137 2 128.493 2 118V107.755V45V25.9784V21C2 10.5066 10.5066 2 21 2Z" fill="black"/>
<path d="M610.853 43.5811V21C610.853 10.5066 602.347 2 591.853 2H21C10.5066 2 2 10.5066 2 21V25.9784M610.853 43.5811C611.966 33.7865 607.248 13.2546 579.476 9.4846C544.761 4.77207 531.409 3.94045 509.378 3.80185C491.753 3.69097 293.297 3.75565 196.272 3.80185C182.92 4.12526 151.009 5.54825 130.18 8.65298M610.853 43.5811V102.488M130.18 8.65298C104.143 12.5339 81.4447 16.9314 68.0926 19.3255M130.18 8.65298C135.966 7.03593 144.066 2 130.18 2M68.0926 19.3255V19.3255C65.6509 19.7633 55.3965 34.0978 52.9159 34.088C48.2203 34.0693 44.1651 34.1629 42 34.5C33.9888 35.7474 2 39.04 2 45M68.0926 19.3255C58.3011 21.0811 35.2466 25.1468 21.3605 27.3645C4.00281 30.1366 2 28.4733 2 25.9784M2 45V25.9784M2 45V107.755M2 107.755C5.33801 112.837 17.4708 123.092 28.0365 125.773C40.0533 128.822 60.749 134.367 170.903 134.644C259.027 134.866 440.837 134.736 520.727 134.644C546.763 134.644 568.127 132.01 546.763 125.773V125.773C544.981 125.263 545.523 122.658 547.371 122.812C554.719 123.424 563.215 123.525 574.135 122.308C601.507 119.259 598.992 115.5 597.5 112.5C596.008 109.5 590.5 107.2 579.476 107.2C568.452 107.2 552.215 107.2 517.5 107.2C506.5 107.2 497 107.2 488.4 109.5C471.985 113.89 474.296 121.272 469.9 120.229C464.768 119.011 456.669 115.204 447.204 111.237C443.709 109.773 444.915 102.488 448.704 102.488V102.488C458.414 102.488 545.448 102.518 610.853 102.488M2 107.755V118C2 128.493 10.5066 137 21 137H591.853C602.347 137 610.853 128.491 610.853 117.998C610.853 111.859 610.853 106.486 610.853 102.488" stroke="#395DF6" stroke-width="3" stroke-linejoin="round"/>
</svg>
