<svg width="893" height="1129" viewBox="0 0 893 1129" fill="none" xmlns="http://www.w3.org/2000/svg">
<g filter="url(#filter0_f_337_161)">
<path d="M459.593 157.723C443.326 157.723 432.482 139.888 427.059 124.767C421.637 109.646 398.786 111.197 397.237 124.767C395.688 138.337 367.414 145.316 347.274 139.888C329.092 134.987 329.219 142.411 329.415 153.887C329.436 155.122 329.458 156.404 329.458 157.723C329.458 171.293 299.636 245.735 279.108 256.591C266.537 263.24 266.894 278.613 267.191 291.402C267.379 299.495 267.543 306.553 264.391 309.709C256.257 317.851 215.59 377.56 210.168 396.558C204.745 415.556 176.085 429.126 164.078 422.535C154.473 417.262 140.969 439.207 135.418 450.839C112.489 450.839 112.437 476.17 115.278 488.835C129.515 505.524 125.171 518.652 120.308 533.351C118.291 539.445 116.186 545.809 115.278 552.809C112.179 576.692 152.717 606.185 173.374 617.946C185.122 641.079 208.928 692.775 210.168 714.488C211.717 741.628 222.174 799.786 239.99 840.884C252.27 869.21 266.205 882.249 279.133 894.346C284.963 899.8 290.587 905.063 295.763 911.449C307.478 925.905 316.127 949.57 322.519 967.058C325.213 974.43 327.506 980.704 329.458 984.728C332.628 991.262 339.39 991.504 348.1 991.816C357.48 992.151 369.121 992.568 380.97 1001.01M459.593 157.723C475.86 157.723 485.155 162.763 489.416 180.598C492.824 194.866 511.105 231.002 520.788 214.718C524.015 209.29 532.097 200.062 538.604 206.576C545.11 213.089 560.164 225.574 566.877 231.002M459.593 157.723C446.539 190.679 427.059 153.887 427.059 157.723C427.059 161.559 443.153 197.542 386.79 206.576C330.428 215.609 397.237 231.002 397.237 251.024C397.237 271.046 397.237 269.762 386.79 304.506C376.344 339.25 390.303 329.1 397.237 336.849C404.171 344.598 418.792 336.849 459.593 319.884C500.395 302.92 556.279 290.925 583.151 269.762C604.649 252.832 581.259 236.868 566.877 231.002M566.877 231.002C576.496 234.225 580.281 225.995 583.151 219.755C585.298 215.087 586.933 211.532 590.116 214.718C599.411 224.023 618.389 244.184 623.811 256.591C624.879 259.036 626.309 263.212 628.093 268.424M715.99 373.682C718.701 396.558 722.574 414.393 737.679 422.535C745.27 426.627 752.851 434.095 758.559 440.749C761.938 444.687 764.66 448.34 766.34 450.839C789.268 461.622 775.894 480.663 766.34 488.835M715.99 373.682C713.862 355.723 699.319 349.952 681.922 343.047C677.16 341.157 672.184 339.182 667.19 336.849C648.53 328.132 635.364 289.667 628.093 268.424M715.99 373.682C710.716 391.874 692.441 427.945 661.532 426.695C622.897 425.134 616.262 422.535 590.116 422.535C563.969 422.535 489.416 440.749 465.232 440.749C441.049 440.749 417.621 430.209 406.303 414.984C397.249 402.804 413.978 401.581 423.475 402.492C432.06 434.503 474.319 423.572 489.416 414.984C489.416 363.844 480.911 345.886 514.405 354.865C547.899 363.844 559.593 396.467 583.151 343.935C606.71 291.402 644.687 304.76 628.093 268.424M766.34 488.835C760.997 495.738 754.142 503.055 747.018 510.659C728.665 530.248 708.526 551.743 707.857 572.97C706.843 605.101 693.157 647.263 682.48 680.153C680.917 684.967 679.419 689.582 678.034 693.939M766.34 488.835C734.557 479.535 722.412 497.354 700.168 505.943C677.923 514.531 678.034 516.483 628.093 527.414C578.152 538.344 597.92 526.633 559.285 510.659C528.376 497.879 479.945 505.334 459.593 510.659C492.127 532.482 471.476 521.948 489.416 552.809C507.355 583.669 505.819 552.809 538.604 552.809C571.388 552.809 556.279 563.719 583.151 583.238C610.024 602.757 590.116 603.928 606.71 642.186C623.304 680.443 628.093 641.015 633.722 627.351C639.351 613.688 652.015 603.928 652.015 583.238C652.015 562.548 667.19 596.902 667.19 617.946C667.19 634.781 674.419 675.622 678.034 693.939M678.034 693.939C672.73 710.627 661.867 718.132 652.015 724.938C641.725 732.048 632.538 738.395 631.945 753.647C631.489 765.361 632.643 776.716 633.722 787.338C635.394 803.79 636.887 818.484 631.945 830.028C627.495 840.421 620.362 844.916 614.813 848.412C610.218 851.307 606.71 853.518 606.71 857.826C606.71 863.139 608.034 867.035 609.243 870.593C612.429 879.966 614.82 886.999 590.116 911.449C568.704 932.639 561.202 950.769 556.279 962.667C553.366 969.709 551.355 974.568 547.899 976.586C543.566 979.116 539.064 979.287 531.53 979.574C522.902 979.902 510.298 980.381 489.416 984.728C462.433 990.344 453.325 995.407 443.153 1001.06M380.97 1001.01L381.133 1001.13M380.97 1001.01C381.024 1001.05 381.079 1001.09 381.133 1001.13M381.133 1001.13C403.829 1017.3 405.422 1018.44 427.059 1009.15C433.788 1006.27 438.578 1003.6 443.153 1001.06M443.153 1001.06C453.505 983.456 458.814 937.465 397.237 894.346C305.058 877.243 338.071 870.593 361.253 830.028C384.435 789.463 361.253 808.098 338.071 787.338C314.889 766.578 308.349 748.76 314.593 710.112C320.837 671.464 347.274 680.153 380.97 617.946C414.666 555.738 334.886 617.946 322.519 603.928C310.151 589.911 309.91 572.97 289.226 533.351C268.542 493.732 279.108 519.997 264.391 552.809C249.673 585.621 164.078 510.659 164.078 488.835C164.078 467.012 267.191 468.466 289.226 488.835C311.261 509.204 329.415 510.659 352.838 533.351C376.261 556.044 414.499 572.97 443.153 603.928C471.807 634.887 478.891 671.464 496.453 748.76C514.015 826.055 606.71 810.05 623.811 820.98M279.108 363.844C295.62 366.856 329.891 369.278 334.886 354.865C336.87 349.143 337.514 344.443 338.071 340.385C339.266 331.668 340.056 325.913 352.838 319.341C368.725 311.172 368.893 306.958 369.529 290.925C369.643 288.053 369.772 284.803 370.009 281.083C371.57 256.591 366.887 245.456 362.985 251.024C361.834 252.666 361.545 253.984 361.253 255.318C360.554 258.506 359.836 261.78 347.274 269.762C341.483 273.442 334.808 276.338 328.302 279.161C314.791 285.023 302.007 290.57 299.373 302.164C298.021 308.114 297.602 314.205 297.211 319.884C296.475 330.6 295.839 339.852 289.226 343.935C279.108 350.181 268.991 362.396 279.108 363.844Z" stroke="#395DF6" stroke-width="41" stroke-linejoin="round"/>
</g>
<defs>
<filter id="filter0_f_337_161" x="0.599998" y="0.601952" width="891.798" height="1127.78" filterUnits="userSpaceOnUse" color-interpolation-filters="sRGB">
<feFlood flood-opacity="0" result="BackgroundImageFix"/>
<feBlend mode="normal" in="SourceGraphic" in2="BackgroundImageFix" result="shape"/>
<feGaussianBlur stdDeviation="46.45" result="effect1_foregroundBlur_337_161"/>
</filter>
</defs>
</svg>
