<svg width="665" height="901" viewBox="0 0 665 901" fill="none" xmlns="http://www.w3.org/2000/svg">
<path d="M21.4176 336.839C26.969 325.207 40.4731 303.262 50.0783 308.535C62.0848 315.126 90.7455 301.556 96.1678 282.558C101.59 263.56 142.257 203.851 150.391 195.709C153.543 192.553 153.379 185.495 153.191 177.402C152.894 164.613 152.537 149.24 165.108 142.591C185.636 131.735 215.458 57.293 215.458 43.7228C215.458 42.404 215.436 41.1219 215.415 39.8866C215.219 28.4115 215.092 20.9872 233.274 25.8877C253.414 31.3158 281.688 24.3371 283.237 10.767C284.786 -2.80322 307.637 -4.35383 313.059 10.767C318.482 25.8877 329.326 43.7228 345.593 43.7228C361.86 43.7228 371.155 48.7633 375.416 66.5983C378.824 80.8664 397.105 117.002 406.788 100.718C410.015 95.2896 418.097 86.0619 424.604 92.5755C431.111 99.0892 446.164 111.574 452.877 117.002C462.496 120.225 466.281 111.995 469.151 105.755C471.298 101.087 472.933 97.532 476.116 100.718C485.411 110.023 504.389 130.184 509.811 142.591C510.879 145.036 512.309 149.212 514.093 154.424C515.915 158.414 517.079 161.805 517.677 164.749C525.35 186.324 537.27 215.412 553.19 222.849C558.184 225.182 563.16 227.157 567.922 229.047C585.319 235.952 599.862 241.723 601.99 259.682C604.701 282.558 608.574 300.393 623.679 308.535C631.27 312.627 638.851 320.095 644.559 326.749C647.938 330.687 650.66 334.34 652.34 336.839C675.268 347.622 661.893 366.663 652.34 374.835C646.997 381.737 640.143 389.053 633.02 396.657L633.018 396.659C614.665 416.248 594.526 437.743 593.857 458.97C592.843 491.101 579.157 533.263 568.48 566.153C566.917 570.967 565.419 575.582 564.034 579.939C558.73 596.627 547.867 604.132 538.015 610.938C527.725 618.048 518.538 624.395 517.945 639.647C517.489 651.361 518.643 662.716 519.722 673.338C521.394 689.79 522.887 704.484 517.945 716.028C513.495 726.421 506.362 730.916 500.813 734.412C496.218 737.307 492.71 739.518 492.71 743.826C492.71 749.139 494.034 753.035 495.243 756.593C498.429 765.966 500.82 772.999 476.116 797.449C454.704 818.639 447.202 836.769 442.279 848.667C439.366 855.709 437.355 860.568 433.899 862.586C429.566 865.116 425.064 865.287 417.53 865.574C408.902 865.902 396.298 866.381 375.416 870.728C348.433 876.344 339.325 881.407 329.153 887.062C324.578 889.605 319.788 892.268 313.059 895.154C291.422 904.437 289.829 903.302 267.133 887.128L266.97 887.012C255.121 878.568 243.48 878.151 234.1 877.816C225.39 877.504 218.628 877.262 215.458 870.728C213.506 866.704 211.213 860.43 208.519 853.059L208.519 853.058C202.127 835.57 193.478 811.905 181.763 797.449C176.587 791.063 170.963 785.801 165.134 780.347L165.133 780.346C152.205 768.249 138.27 755.21 125.99 726.884C108.174 685.786 97.717 627.628 96.1678 600.488C94.9284 578.775 71.122 527.079 59.3737 503.946C38.7173 492.185 -1.82074 462.692 1.27771 438.809C2.18579 431.809 4.29144 425.445 6.30776 419.351C11.1714 404.652 15.5151 391.524 1.27771 374.835C-1.56257 362.17 -1.511 336.839 21.4176 336.839Z" fill="black"/>
</svg>
