<svg width="69" height="68" viewBox="0 0 69 68" fill="none" xmlns="http://www.w3.org/2000/svg">
<path d="M30.0615 4.61379C30.8984 -0.397903 38.1016 -0.397903 38.9385 4.6138L41.8178 21.8553C42.1999 24.1428 43.9757 25.9449 46.2574 26.3604L63.8978 29.5728C68.8229 30.4697 68.8229 37.5303 63.8978 38.4272L46.2574 41.6396C43.9757 42.0551 42.1999 43.8572 41.8178 46.1447L38.9385 63.3862C38.1016 68.3979 30.8984 68.3979 30.0615 63.3862L27.1822 46.1447C26.8001 43.8572 25.0243 42.0551 22.7426 41.6396L5.10218 38.4272C0.177128 37.5303 0.177128 30.4697 5.10218 29.5728L22.7426 26.3604C25.0243 25.9449 26.8001 24.1428 27.1822 21.8553L30.0615 4.61379Z" stroke="#395DF6"/>
</svg>
