<svg width="1920" height="1040" viewBox="0 0 1920 1040" fill="none" xmlns="http://www.w3.org/2000/svg">
<path d="M-68.8597 777.233C-49.6427 750.394 -2.89607 699.758 30.3538 711.925C71.9162 727.134 171.129 695.821 189.9 651.984C208.67 608.147 349.445 470.373 377.601 451.585C388.513 444.304 387.946 428.018 387.295 409.343C386.267 379.835 385.031 344.361 428.548 329.02C499.606 303.97 602.842 132.2 602.842 100.888C602.842 97.8446 602.766 94.8861 602.693 92.0358C602.013 65.5577 601.573 48.4266 664.515 59.7343C734.232 72.2592 832.105 56.1564 837.468 24.8441C842.831 -6.46824 921.933 -10.0462 940.703 24.8441C959.474 59.7343 997.014 100.888 1053.32 100.888C1109.63 100.888 1141.81 112.518 1156.56 153.671C1168.36 186.594 1231.64 269.974 1265.16 232.4C1276.33 219.875 1304.31 198.582 1326.83 213.612C1349.36 228.642 1401.46 257.449 1424.7 269.974C1458 277.411 1471.1 258.422 1481.04 244.023C1488.47 233.251 1494.13 225.049 1505.15 232.4C1537.32 253.871 1603.02 300.392 1621.79 329.02C1625.49 334.661 1630.44 344.296 1636.61 356.324C1642.92 365.531 1646.95 373.355 1649.02 380.149C1675.58 429.931 1716.84 497.05 1771.95 514.21C1789.24 519.594 1806.46 524.151 1822.95 528.512C1883.17 544.444 1933.51 557.761 1940.88 599.201C1950.27 651.984 1963.67 693.137 2015.96 711.925C2042.24 721.367 2068.48 738.599 2088.24 753.953C2099.94 763.039 2109.36 771.468 2115.18 777.233C2194.55 802.116 2148.25 846.051 2115.18 864.908C2096.68 880.835 2072.95 897.717 2048.29 915.262L2048.29 915.264C1984.76 960.466 1915.04 1010.06 1912.73 1059.04C1909.22 1133.18 1861.84 1230.47 1824.88 1306.36L1824.84 1306.45C1819.44 1317.52 1814.27 1328.15 1809.49 1338.17C1791.13 1376.68 1753.52 1394 1719.42 1409.7C1683.8 1426.11 1652 1440.75 1649.95 1475.95C1648.37 1502.97 1652.36 1529.17 1656.1 1553.68V1553.68C1661.89 1591.65 1667.05 1625.55 1649.95 1652.19C1634.54 1676.17 1609.85 1686.54 1590.64 1694.61C1574.74 1701.29 1562.59 1706.39 1562.59 1716.33C1562.59 1728.59 1567.17 1737.58 1571.36 1745.79C1582.39 1767.42 1590.67 1783.65 1505.15 1840.06C1431.03 1888.96 1405.06 1930.79 1388.02 1958.25C1377.93 1974.49 1370.97 1985.71 1359.01 1990.36C1344.01 1996.2 1328.43 1996.6 1302.34 1997.26C1272.48 1998.01 1228.85 1999.12 1156.56 2009.15C1063.16 2022.11 1031.63 2033.79 996.415 2046.84L996.414 2046.84L996.412 2046.84C980.576 2052.71 963.994 2058.85 940.703 2065.51C865.802 2086.93 860.286 2084.31 781.723 2046.99L781.722 2046.99L781.158 2046.72C740.141 2027.24 699.845 2026.28 667.373 2025.5H667.371C637.22 2024.78 613.815 2024.22 602.842 2009.15C596.084 1999.86 588.147 1985.39 578.821 1968.38L578.82 1968.38C556.695 1928.03 526.755 1873.42 486.199 1840.06C468.283 1825.33 448.813 1813.18 428.635 1800.6C383.882 1772.69 335.642 1742.6 293.135 1677.24C231.462 1582.41 195.262 1448.21 189.9 1385.59C185.609 1335.49 103.2 1216.2 62.5311 1162.82C-8.97398 1135.68 -149.303 1067.63 -138.577 1012.52C-135.434 996.372 -128.145 981.688 -121.165 967.626C-104.329 933.708 -89.292 903.416 -138.577 864.908C-148.409 835.683 -148.231 777.233 -68.8597 777.233Z" fill="black"/>
</svg>
