<svg width="1920" height="1080" viewBox="0 0 1920 1080" fill="none" xmlns="http://www.w3.org/2000/svg">
<g filter="url(#filter0_f_320_708)">
<path d="M-68.8597 748.725C-49.6427 724.597 -2.89607 679.075 30.3538 690.013C71.9162 703.686 171.129 675.536 189.9 636.127C208.67 596.718 349.445 472.86 377.601 455.971C388.513 449.425 387.946 434.784 387.295 417.995C386.267 391.467 385.031 359.577 428.548 345.786C499.606 323.266 602.842 168.846 602.842 140.697C602.842 137.961 602.766 135.302 602.693 132.739C602.013 108.936 601.573 93.535 664.515 103.701C734.232 114.96 832.105 100.484 837.468 72.3346C842.831 44.1851 921.933 40.9686 940.703 72.3346C959.474 103.701 997.014 140.697 1053.32 140.697C1109.63 140.697 1141.81 151.153 1156.56 188.149C1168.36 217.746 1231.64 292.704 1265.16 258.925C1276.33 247.665 1304.31 228.523 1326.83 242.035C1349.36 255.547 1401.46 281.444 1424.7 292.704C1458 299.39 1471.1 282.319 1481.04 269.374C1488.47 259.691 1494.13 252.317 1505.15 258.925C1537.32 278.227 1603.02 320.049 1621.79 345.786C1625.49 350.857 1630.44 359.519 1636.61 370.332C1642.92 378.609 1646.95 385.642 1649.02 391.75C1675.58 436.503 1716.84 496.843 1771.95 512.27C1789.24 517.109 1806.46 521.206 1822.95 525.127C1883.17 539.449 1933.51 551.421 1940.88 588.675C1950.27 636.127 1963.67 673.123 2015.96 690.013C2042.24 698.501 2068.48 713.993 2088.24 727.796C2099.94 735.965 2109.36 743.542 2115.18 748.725C2194.55 771.094 2148.25 810.591 2115.18 827.544C2096.68 841.862 2072.95 857.039 2048.29 872.812L2048.29 872.813C1984.76 913.449 1915.04 958.038 1912.73 1002.07C1909.22 1068.72 1861.84 1156.18 1824.88 1224.41L1824.84 1224.47C1819.45 1234.43 1814.27 1243.99 1809.49 1253C1791.13 1287.62 1753.52 1303.19 1719.42 1317.31C1683.8 1332.06 1652 1345.22 1649.95 1376.86C1648.37 1401.16 1652.36 1424.71 1656.1 1446.75C1661.89 1480.87 1667.05 1511.35 1649.95 1535.3C1634.54 1556.86 1609.85 1566.18 1590.64 1573.44C1574.74 1579.44 1562.59 1584.03 1562.59 1592.96C1562.59 1603.99 1567.17 1612.07 1571.36 1619.45C1582.39 1638.89 1590.67 1653.48 1505.15 1704.2C1431.03 1748.15 1405.06 1785.76 1388.02 1810.44L1388.02 1810.44C1377.93 1825.05 1370.97 1835.13 1359.01 1839.32C1344.01 1844.56 1328.43 1844.92 1302.34 1845.51H1302.34C1272.48 1846.19 1228.84 1847.19 1156.56 1856.2C1063.15 1867.85 1031.63 1878.36 996.414 1890.09L996.41 1890.09C980.574 1895.36 963.993 1900.89 940.703 1906.87C865.802 1926.13 860.286 1923.77 781.722 1890.22L781.158 1889.98C740.141 1872.47 699.845 1871.6 667.373 1870.91C637.221 1870.26 613.816 1869.76 602.842 1856.2C596.083 1847.86 588.146 1834.84 578.82 1819.55L578.819 1819.55C556.694 1783.27 526.754 1734.18 486.199 1704.2C468.284 1690.95 448.816 1680.04 428.639 1668.72L428.635 1668.72C383.882 1643.63 335.642 1616.58 293.135 1557.82C231.462 1472.57 195.262 1351.93 189.9 1295.63C185.609 1250.59 103.2 1143.35 62.5311 1095.37C-8.97398 1070.97 -149.303 1009.79 -138.577 960.248C-135.434 945.728 -128.145 932.527 -121.165 919.886C-104.329 889.394 -89.292 862.162 -138.577 827.544C-148.409 801.271 -148.231 748.725 -68.8597 748.725Z" fill="black"/>
<path d="M1053.32 140.697C997.014 140.697 959.474 103.701 940.704 72.3346C921.933 40.9686 842.831 44.1851 837.468 72.3346C832.105 100.484 734.232 114.96 664.515 103.701C601.573 93.535 602.013 108.936 602.693 132.739C602.766 135.302 602.842 137.961 602.842 140.697C602.842 168.846 499.606 323.266 428.548 345.786C385.031 359.577 386.267 391.468 387.295 417.995C387.946 434.784 388.513 449.425 377.601 455.971C349.445 472.86 208.67 596.718 189.9 636.127C171.129 675.536 71.9162 703.686 30.3538 690.013C-2.89607 679.075 -49.6427 724.597 -68.8597 748.725C-148.231 748.725 -148.409 801.271 -138.577 827.544C-89.292 862.162 -104.329 889.394 -121.165 919.886C-128.145 932.527 -135.434 945.728 -138.577 960.248C-149.303 1009.79 -8.97399 1070.97 62.5311 1095.37C103.2 1143.35 185.609 1250.59 189.9 1295.63C195.262 1351.93 231.462 1472.57 293.135 1557.82C335.642 1616.58 383.882 1643.63 428.635 1668.72C448.813 1680.03 468.283 1690.95 486.199 1704.2C526.755 1734.18 556.695 1783.28 578.82 1819.55C588.146 1834.84 596.083 1847.86 602.842 1856.2C613.816 1869.76 637.221 1870.26 667.373 1870.91C699.845 1871.6 740.141 1872.47 781.158 1889.98M1053.32 140.697C1109.63 140.697 1141.81 151.153 1156.56 188.149C1168.36 217.746 1231.64 292.704 1265.16 258.925C1276.33 247.665 1304.31 228.523 1326.83 242.035C1349.36 255.547 1401.46 281.444 1424.7 292.704M1053.32 140.697C1008.14 209.059 940.704 132.739 940.704 140.697C940.704 148.655 996.413 223.295 801.306 242.035C606.199 260.775 837.468 292.704 837.468 334.237C837.468 375.77 837.468 373.107 801.306 445.178C765.145 517.25 813.465 496.195 837.468 512.27C861.471 528.344 912.083 512.27 1053.32 477.079C1194.56 441.888 1388.02 417.006 1481.04 373.107C1555.46 337.988 1474.49 304.872 1424.7 292.704M1424.7 292.704C1458 299.39 1471.1 282.319 1481.04 269.374C1488.47 259.691 1494.13 252.317 1505.15 258.925C1537.32 278.227 1603.02 320.049 1621.79 345.786C1625.49 350.857 1630.44 359.519 1636.61 370.332M1940.88 588.675C1950.27 636.127 1963.67 673.123 2015.96 690.013C2042.24 698.501 2068.48 713.993 2088.24 727.796C2099.94 735.965 2109.36 743.542 2115.18 748.725C2194.55 771.094 2148.25 810.591 2115.18 827.544M1940.88 588.675C1933.51 551.421 1883.17 539.449 1822.95 525.127C1806.46 521.206 1789.24 517.109 1771.95 512.27C1707.36 494.187 1661.78 414.397 1636.61 370.332M1940.88 588.675C1922.62 626.411 1859.36 701.235 1752.37 698.643C1618.62 695.404 1595.66 690.013 1505.15 690.013C1414.64 690.013 1156.56 727.796 1072.84 727.796C989.13 727.796 908.03 705.932 868.853 674.35C837.511 649.084 895.422 646.547 928.294 648.436C958.015 714.839 1104.3 692.165 1156.56 674.35C1156.56 568.267 1127.12 531.016 1243.06 549.642C1359.01 568.267 1399.49 635.94 1481.04 526.967C1562.59 417.995 1694.06 445.705 1636.61 370.332M2115.18 827.544C2096.68 841.862 2072.95 857.04 2048.29 872.813C1984.76 913.449 1915.04 958.038 1912.73 1002.07C1909.22 1068.72 1861.84 1156.18 1824.88 1224.41C1819.47 1234.39 1814.28 1243.97 1809.49 1253M2115.18 827.544C2005.15 808.252 1963.11 845.216 1886.11 863.031C1809.11 880.847 1809.49 884.896 1636.61 907.57C1463.73 930.244 1532.16 905.95 1398.42 872.813C1291.43 846.304 1123.78 861.768 1053.32 872.813C1165.94 918.083 1094.46 896.233 1156.56 960.248C1218.66 1024.26 1213.34 960.248 1326.83 960.248C1440.32 960.248 1388.02 982.88 1481.04 1023.37C1574.06 1063.86 1505.15 1066.29 1562.59 1145.65C1620.03 1225.01 1636.61 1143.22 1656.1 1114.88C1675.58 1086.53 1719.42 1066.29 1719.42 1023.37C1719.42 980.451 1771.95 1051.71 1771.95 1095.37C1771.95 1130.29 1796.98 1215.01 1809.49 1253M1809.49 1253C1791.13 1287.62 1753.52 1303.19 1719.42 1317.31C1683.8 1332.06 1652 1345.22 1649.95 1376.86C1648.37 1401.16 1652.36 1424.71 1656.1 1446.75C1661.88 1480.87 1667.05 1511.35 1649.95 1535.3C1634.54 1556.86 1609.85 1566.18 1590.64 1573.44C1574.74 1579.44 1562.59 1584.03 1562.59 1592.96C1562.59 1603.99 1567.17 1612.07 1571.36 1619.45C1582.39 1638.89 1590.67 1653.48 1505.15 1704.2C1431.03 1748.15 1405.06 1785.76 1388.02 1810.44C1377.93 1825.05 1370.97 1835.13 1359.01 1839.32C1344.01 1844.56 1328.43 1844.92 1302.34 1845.51C1272.48 1846.19 1228.85 1847.19 1156.56 1856.2C1063.15 1867.85 1031.63 1878.36 996.414 1890.09M781.158 1889.98L781.722 1890.22M781.158 1889.98C781.346 1890.06 781.534 1890.14 781.722 1890.22M781.722 1890.22C860.286 1923.77 865.802 1926.13 940.704 1906.87C963.995 1900.89 980.577 1895.36 996.414 1890.09M996.414 1890.09C1032.25 1853.57 1050.63 1758.16 837.468 1668.72C518.376 1633.24 632.655 1619.45 712.903 1535.3C793.151 1451.15 712.903 1489.81 632.655 1446.75C552.408 1403.68 529.768 1366.72 551.383 1286.55C572.998 1206.38 664.515 1224.41 781.158 1095.37C897.801 966.324 621.631 1095.37 578.82 1066.29C536.008 1037.21 535.171 1002.07 463.572 919.886C391.972 837.702 428.548 892.184 377.601 960.248C326.653 1028.31 30.3538 872.813 30.3538 827.544C30.3538 782.274 387.295 785.291 463.572 827.544C539.848 869.796 602.693 872.813 683.775 919.886C764.856 966.959 897.223 1002.07 996.414 1066.29C1095.6 1130.51 1120.13 1206.38 1180.92 1366.72C1241.71 1527.06 1562.59 1493.86 1621.79 1516.53M428.548 568.267C485.704 574.516 604.339 579.539 621.631 549.642C628.497 537.771 630.729 528.022 632.655 519.605C636.794 501.522 639.527 489.584 683.775 475.951C738.771 459.005 739.35 450.264 741.554 417.006C741.948 411.05 742.395 404.308 743.216 396.591C748.62 345.786 732.408 322.688 718.899 334.237C714.915 337.643 713.915 340.378 712.903 343.144C710.484 349.758 708.001 356.548 664.515 373.107C644.468 380.74 621.362 386.748 598.838 392.604C552.069 404.764 507.814 416.271 498.696 440.32C494.016 452.663 492.566 465.297 491.215 477.079C488.664 499.307 486.462 518.499 463.572 526.967C428.548 539.924 393.525 565.264 428.548 568.267Z" stroke="#395DF6" stroke-width="41" stroke-linejoin="round"/>
</g>
<defs>
<filter id="filter0_f_320_708" x="-256.401" y="-63.4" width="2528.8" height="2095.79" filterUnits="userSpaceOnUse" color-interpolation-filters="sRGB">
<feFlood flood-opacity="0" result="BackgroundImageFix"/>
<feBlend mode="normal" in="SourceGraphic" in2="BackgroundImageFix" result="shape"/>
<feGaussianBlur stdDeviation="46.45" result="effect1_foregroundBlur_320_708"/>
</filter>
</defs>
</svg>
