<svg width="594" height="489" viewBox="0 0 594 489" fill="none" xmlns="http://www.w3.org/2000/svg">
<path d="M453.975 276.341V263C453.975 252.507 445.468 244 434.975 244H367.65C357.35 244 349 252.35 349 262.65V262.65M453.975 276.341C454.167 268.723 453.353 252.754 448.565 249.821C442.579 246.156 440.277 245.509 436.479 245.401C433.44 245.315 399.224 245.366 382.495 245.401C380.193 245.653 374.691 246.76 371.1 249.175M453.975 276.341V322.157M371.1 249.175C366.611 252.193 362.697 255.613 360.395 257.475M371.1 249.175C372.098 247.917 373.494 244 371.1 244M360.395 257.475C359.473 258.221 359.542 260.812 360.014 263.384C360.384 265.393 357.568 268.104 355.897 269.278V269.278C354.515 270.248 349 272.809 349 277.444M360.395 257.475C358.707 258.841 354.732 262.003 352.338 263.728C349.345 265.884 349 264.59 349 262.65M349 277.444V262.65M349 277.444V326.254M349 326.254C349.576 330.206 351.667 338.183 353.489 340.268C355.561 342.64 359.129 346.952 378.121 347.167C393.315 347.34 424.662 347.239 438.436 347.167H445.232C448.603 347.167 451.612 345.793 452.366 342.508C453.232 338.739 453.975 332.361 453.975 322.157M349 326.254V330C349 340.493 357.507 349 368 349H434.975C445.468 349 453.975 340.491 453.975 329.998C453.975 326.977 453.975 324.311 453.975 322.157" stroke="#395DF6" stroke-opacity="0.5" stroke-linejoin="round"/>
<path d="M453.975 381.341V368C453.975 357.507 445.468 349 434.975 349H367.65C357.35 349 349 357.35 349 367.65V367.65M453.975 381.341C454.167 373.723 453.353 357.754 448.565 354.821C442.579 351.156 440.277 350.509 436.479 350.401C433.44 350.315 399.224 350.366 382.495 350.401C380.193 350.653 374.691 351.76 371.1 354.175M453.975 381.341V427.157M371.1 354.175C366.611 357.193 362.697 360.613 360.395 362.475M371.1 354.175C372.098 352.917 373.494 349 371.1 349M360.395 362.475C359.473 363.221 359.542 365.812 360.014 368.384C360.384 370.393 357.568 373.104 355.897 374.278V374.278C354.515 375.248 349 377.809 349 382.444M360.395 362.475C358.707 363.841 354.732 367.003 352.338 368.728C349.345 370.884 349 369.59 349 367.65M349 382.444V367.65M349 382.444V431.254M349 431.254C349.576 435.206 351.667 443.183 353.489 445.268C355.561 447.64 359.129 451.952 378.121 452.167C393.315 452.34 424.662 452.239 438.436 452.167H445.232C448.603 452.167 451.612 450.793 452.366 447.508C453.232 443.739 453.975 437.361 453.975 427.157M349 431.254V435C349 445.493 357.507 454 368 454H434.975C445.468 454 453.975 445.491 453.975 434.998C453.975 431.977 453.975 429.311 453.975 427.157" stroke="#395DF6" stroke-opacity="0.5" stroke-linejoin="round"/>
<path d="M559.631 381.341V368C559.631 357.507 551.124 349 540.631 349H473.306C463.006 349 454.656 357.35 454.656 367.65V367.65M559.631 381.341C559.823 373.723 559.009 357.754 554.221 354.821C548.236 351.156 545.934 350.509 542.135 350.401C539.096 350.315 504.88 350.366 488.151 350.401C485.849 350.653 480.347 351.76 476.756 354.175M559.631 381.341V427.157M476.756 354.175C472.267 357.193 468.354 360.613 466.052 362.475M476.756 354.175C477.754 352.917 479.15 349 476.756 349M466.052 362.475C465.13 363.221 465.198 365.812 465.671 368.384C466.04 370.393 463.224 373.104 461.553 374.278V374.278C460.172 375.248 454.656 377.809 454.656 382.444M466.052 362.475C464.363 363.841 460.388 367.003 457.994 368.728C455.002 370.884 454.656 369.59 454.656 367.65M454.656 382.444V367.65M454.656 382.444V431.254M454.656 431.254C455.232 435.206 457.324 443.183 459.145 445.268C461.217 447.64 464.785 451.952 483.778 452.167C498.971 452.34 530.318 452.239 544.092 452.167H550.889C554.259 452.167 557.268 450.793 558.022 447.508C558.888 443.739 559.631 437.361 559.631 427.157M454.656 431.254V435C454.656 445.493 463.163 454 473.656 454H540.631C551.124 454 559.631 445.491 559.631 434.998C559.631 431.977 559.631 429.311 559.631 427.157" stroke="#395DF6" stroke-opacity="0.5" stroke-linejoin="round"/>
<path d="M559.631 276.341V263C559.631 252.507 551.124 244 540.631 244H473.306C463.006 244 454.656 252.35 454.656 262.65V262.65M559.631 276.341C559.823 268.723 559.009 252.754 554.221 249.821C548.236 246.156 545.934 245.509 542.135 245.401C539.096 245.315 504.88 245.366 488.151 245.401C485.849 245.653 480.347 246.76 476.756 249.175M559.631 276.341V322.157M476.756 249.175C472.267 252.193 468.354 255.613 466.052 257.475M476.756 249.175C477.754 247.917 479.15 244 476.756 244M466.052 257.475C465.13 258.221 465.198 260.812 465.671 263.384C466.04 265.393 463.224 268.104 461.553 269.278V269.278C460.172 270.248 454.656 272.809 454.656 277.444M466.052 257.475C464.363 258.841 460.388 262.003 457.994 263.728C455.002 265.884 454.656 264.59 454.656 262.65M454.656 277.444V262.65M454.656 277.444V326.254M454.656 326.254C455.232 330.206 457.324 338.183 459.145 340.268C461.217 342.64 464.785 346.952 483.778 347.167C498.971 347.34 530.318 347.239 544.092 347.167H550.889C554.259 347.167 557.268 345.793 558.022 342.508C558.888 338.739 559.631 332.361 559.631 322.157M454.656 326.254V330C454.656 340.493 463.163 349 473.656 349H540.631C551.124 349 559.631 340.491 559.631 329.998C559.631 326.977 559.631 324.311 559.631 322.157" stroke="#395DF6" stroke-opacity="0.5" stroke-linejoin="round"/>
<path d="M453.975 171.341V158C453.975 147.507 445.468 139 434.975 139H367.65C357.35 139 349 147.35 349 157.65V157.65M453.975 171.341C454.167 163.723 453.353 147.754 448.565 144.821C442.579 141.156 440.277 140.509 436.479 140.401C433.44 140.315 399.224 140.366 382.495 140.401C380.193 140.653 374.691 141.76 371.1 144.175M453.975 171.341V217.157M371.1 144.175C366.611 147.193 362.697 150.613 360.395 152.475M371.1 144.175C372.098 142.917 373.494 139 371.1 139M360.395 152.475C359.473 153.221 359.542 155.812 360.014 158.384C360.384 160.393 357.568 163.104 355.897 164.278V164.278C354.515 165.248 349 167.809 349 172.444M360.395 152.475C358.707 153.841 354.732 157.003 352.338 158.728C349.345 160.884 349 159.59 349 157.65M349 172.444V157.65M349 172.444V221.254M349 221.254C349.576 225.206 351.667 233.183 353.489 235.268C355.561 237.64 359.129 241.952 378.121 242.167C393.315 242.34 424.662 242.239 438.436 242.167H445.232C448.603 242.167 451.612 240.793 452.366 237.508C453.232 233.739 453.975 227.361 453.975 217.157M349 221.254V225C349 235.493 357.507 244 368 244H434.975C445.468 244 453.975 235.491 453.975 224.998C453.975 221.977 453.975 219.311 453.975 217.157" stroke="#395DF6" stroke-opacity="0.5" stroke-linejoin="round"/>
<path d="M243.975 171.341V158C243.975 147.507 235.468 139 224.975 139H157.65C147.35 139 139 147.35 139 157.65V157.65M243.975 171.341C244.167 163.723 243.353 147.754 238.565 144.821C232.579 141.156 230.277 140.509 226.479 140.401C223.44 140.315 189.224 140.366 172.495 140.401C170.193 140.653 164.691 141.76 161.1 144.175M243.975 171.341V217.157M161.1 144.175C156.611 147.193 152.697 150.613 150.395 152.475M161.1 144.175C162.098 142.917 163.494 139 161.1 139M150.395 152.475C149.473 153.221 149.542 155.812 150.014 158.384C150.384 160.393 147.568 163.104 145.897 164.278V164.278C144.515 165.248 139 167.809 139 172.444M150.395 152.475C148.707 153.841 144.732 157.003 142.338 158.728C139.345 160.884 139 159.59 139 157.65M139 172.444V157.65M139 172.444V221.254M139 221.254C139.576 225.206 141.667 233.183 143.489 235.268C145.561 237.64 149.129 241.952 168.121 242.167C183.315 242.34 214.662 242.239 228.436 242.167H235.232C238.603 242.167 241.612 240.793 242.366 237.508C243.232 233.739 243.975 227.361 243.975 217.157M139 221.254V225C139 235.493 147.507 244 158 244H224.975C235.468 244 243.975 235.491 243.975 224.998C243.975 221.977 243.975 219.311 243.975 217.157" stroke="#395DF6" stroke-opacity="0.5" stroke-linejoin="round"/>
<path d="M348.975 66.3409V53C348.975 42.5066 340.468 34 329.975 34H262.65C252.35 34 244 42.3498 244 52.6499V52.6499M348.975 66.3409C349.167 58.7228 348.353 42.7536 343.565 39.8214C337.579 36.1561 335.277 35.5092 331.479 35.4014C328.44 35.3152 294.224 35.3655 277.495 35.4014C275.193 35.653 269.691 36.7598 266.1 39.1745M348.975 66.3409V112.157M266.1 39.1745C261.611 42.193 257.697 45.6133 255.395 47.4754M266.1 39.1745C267.098 37.9168 268.494 34 266.1 34M255.395 47.4754C254.473 48.221 254.542 50.8122 255.014 53.3836C255.384 55.3927 252.568 58.1036 250.897 59.2778V59.2778C249.515 60.248 244 62.8089 244 67.4444M255.395 47.4754C253.707 48.8409 249.732 52.0031 247.338 53.7279C244.345 55.884 244 54.5904 244 52.6499M244 67.4444V52.6499M244 67.4444V116.254M244 116.254C244.576 120.206 246.667 128.183 248.489 130.268C250.561 132.64 254.129 136.952 273.121 137.167C288.315 137.34 319.662 137.239 333.436 137.167H340.232C343.603 137.167 346.612 135.793 347.366 132.508C348.232 128.739 348.975 122.361 348.975 112.157M244 116.254V120C244 130.493 252.507 139 263 139H329.975C340.468 139 348.975 130.491 348.975 119.998C348.975 116.977 348.975 114.311 348.975 112.157" stroke="#395DF6" stroke-opacity="0.5" stroke-linejoin="round"/>
<path d="M138.975 276.341V263C138.975 252.507 130.468 244 119.975 244H52.6499C42.3498 244 34 252.35 34 262.65V262.65M138.975 276.341C139.167 268.723 138.353 252.754 133.565 249.821C127.579 246.156 125.277 245.509 121.479 245.401C118.44 245.315 84.2236 245.366 67.4952 245.401C65.1931 245.653 59.6912 246.76 56.0999 249.175M138.975 276.341V322.157M56.0999 249.175C51.6109 252.193 47.6974 255.613 45.3953 257.475M56.0999 249.175C57.0975 247.917 58.4941 244 56.0999 244M45.3953 257.475C44.4735 258.221 44.5419 260.812 45.0145 263.384C45.3837 265.393 42.5681 268.104 40.8966 269.278V269.278C39.5153 270.248 34 272.809 34 277.444M45.3953 257.475C43.7071 258.841 39.7322 262.003 37.338 263.728C34.3453 265.884 34 264.59 34 262.65M34 277.444V262.65M34 277.444V326.254M34 326.254C34.5755 330.206 36.6674 338.183 38.489 340.268C40.5609 342.64 44.1291 346.952 63.1213 347.167C78.315 347.34 109.662 347.239 123.436 347.167H130.232C133.603 347.167 136.612 345.793 137.366 342.508C138.232 338.739 138.975 332.361 138.975 322.157M34 326.254V330C34 340.493 42.5066 349 53 349H119.975C130.468 349 138.975 340.491 138.975 329.998C138.975 326.977 138.975 324.311 138.975 322.157" stroke="#395DF6" stroke-opacity="0.5" stroke-linejoin="round"/>
<path d="M138.975 381.341V368C138.975 357.507 130.468 349 119.975 349H52.6499C42.3498 349 34 357.35 34 367.65V367.65M138.975 381.341C139.167 373.723 138.353 357.754 133.565 354.821C127.579 351.156 125.277 350.509 121.479 350.401C118.44 350.315 84.2236 350.366 67.4952 350.401C65.1931 350.653 59.6912 351.76 56.0999 354.175M138.975 381.341V427.157M56.0999 354.175C51.6109 357.193 47.6974 360.613 45.3953 362.475M56.0999 354.175C57.0975 352.917 58.4941 349 56.0999 349M45.3953 362.475C44.4735 363.221 44.5419 365.812 45.0145 368.384C45.3837 370.393 42.5681 373.104 40.8966 374.278V374.278C39.5153 375.248 34 377.809 34 382.444M45.3953 362.475C43.7071 363.841 39.7322 367.003 37.338 368.728C34.3453 370.884 34 369.59 34 367.65M34 382.444V367.65M34 382.444V431.254M34 431.254C34.5755 435.206 36.6674 443.183 38.489 445.268C40.5609 447.64 44.1291 451.952 63.1213 452.167C78.315 452.34 109.662 452.239 123.436 452.167H130.232C133.603 452.167 136.612 450.793 137.366 447.508C138.232 443.739 138.975 437.361 138.975 427.157M34 431.254V435C34 445.493 42.5066 454 53 454H119.975C130.468 454 138.975 445.491 138.975 434.998C138.975 431.977 138.975 429.311 138.975 427.157" stroke="#395DF6" stroke-opacity="0.5" stroke-linejoin="round"/>
<path d="M348.975 171.341V158C348.975 147.507 340.468 139 329.975 139H262.65C252.35 139 244 147.35 244 157.65V157.65M348.975 171.341C349.167 163.723 348.353 147.754 343.565 144.821C337.579 141.156 335.277 140.509 331.479 140.401C328.44 140.315 294.224 140.366 277.495 140.401C275.193 140.653 269.691 141.76 266.1 144.175M348.975 171.341V217.157M266.1 144.175C261.611 147.193 257.697 150.613 255.395 152.475M266.1 144.175C267.098 142.917 268.494 139 266.1 139M255.395 152.475C254.473 153.221 254.542 155.812 255.014 158.384C255.384 160.393 252.568 163.104 250.897 164.278V164.278C249.515 165.248 244 167.809 244 172.444M255.395 152.475C253.707 153.841 249.732 157.003 247.338 158.728C244.345 160.884 244 159.59 244 157.65M244 172.444V157.65M244 172.444V221.254M244 221.254C244.576 225.206 246.667 233.183 248.489 235.268C250.561 237.64 254.129 241.952 273.121 242.167C288.315 242.34 319.662 242.239 333.436 242.167H340.232C343.603 242.167 346.612 240.793 347.366 237.508C348.232 233.739 348.975 227.361 348.975 217.157M244 221.254V225C244 235.493 252.507 244 263 244H329.975C340.468 244 348.975 235.491 348.975 224.998C348.975 221.977 348.975 219.311 348.975 217.157" stroke="#395DF6" stroke-opacity="0.5" stroke-linejoin="round"/>
<path d="M243.975 276.341V263C243.975 252.507 235.468 244 224.975 244H157.65C147.35 244 139 252.35 139 262.65V262.65M243.975 276.341C244.167 268.723 243.353 252.754 238.565 249.821C232.579 246.156 230.277 245.509 226.479 245.401C223.44 245.315 189.224 245.366 172.495 245.401C170.193 245.653 164.691 246.76 161.1 249.175M243.975 276.341V322.157M161.1 249.175C156.611 252.193 152.697 255.613 150.395 257.475M161.1 249.175C162.098 247.917 163.494 244 161.1 244M150.395 257.475C149.473 258.221 149.542 260.812 150.014 263.384C150.384 265.393 147.568 268.104 145.897 269.278V269.278C144.515 270.248 139 272.809 139 277.444M150.395 257.475C148.707 258.841 144.732 262.003 142.338 263.728C139.345 265.884 139 264.59 139 262.65M139 277.444V262.65M139 277.444V326.254M139 326.254C139.576 330.206 141.667 338.183 143.489 340.268C145.561 342.64 149.129 346.952 168.121 347.167C183.315 347.34 214.662 347.239 228.436 347.167H235.232C238.603 347.167 241.612 345.793 242.366 342.508C243.232 338.739 243.975 332.361 243.975 322.157M139 326.254V330C139 340.493 147.507 349 158 349H224.975C235.468 349 243.975 340.491 243.975 329.998C243.975 326.977 243.975 324.311 243.975 322.157" stroke="#395DF6" stroke-opacity="0.5" stroke-linejoin="round"/>
<path d="M243.975 381.341V368C243.975 357.507 235.468 349 224.975 349H157.65C147.35 349 139 357.35 139 367.65V367.65M243.975 381.341C244.167 373.723 243.353 357.754 238.565 354.821C232.579 351.156 230.277 350.509 226.479 350.401C223.44 350.315 189.224 350.366 172.495 350.401C170.193 350.653 164.691 351.76 161.1 354.175M243.975 381.341V427.157M161.1 354.175C156.611 357.193 152.697 360.613 150.395 362.475M161.1 354.175C162.098 352.917 163.494 349 161.1 349M150.395 362.475C149.473 363.221 149.542 365.812 150.014 368.384C150.384 370.393 147.568 373.104 145.897 374.278V374.278C144.515 375.248 139 377.809 139 382.444M150.395 362.475C148.707 363.841 144.732 367.003 142.338 368.728C139.345 370.884 139 369.59 139 367.65M139 382.444V367.65M139 382.444V431.254M139 431.254C139.576 435.206 141.667 443.183 143.489 445.268C145.561 447.64 149.129 451.952 168.121 452.167C183.315 452.34 214.662 452.239 228.436 452.167H235.232C238.603 452.167 241.612 450.793 242.366 447.508C243.232 443.739 243.975 437.361 243.975 427.157M139 431.254V435C139 445.493 147.507 454 158 454H224.975C235.468 454 243.975 445.491 243.975 434.998C243.975 431.977 243.975 429.311 243.975 427.157" stroke="#395DF6" stroke-opacity="0.5" stroke-linejoin="round"/>
<g filter="url(#filter0_f_440_3)">
<path d="M367.65 244H371.1H434.975C440.44 244 445.367 246.308 448.834 250.003C449.49 250.486 450.067 251.223 450.575 252.151C452.718 255.227 453.975 258.967 453.975 263V272.005C454.011 273.613 454.006 275.089 453.975 276.341V322.157V329.998C453.975 331.357 453.832 332.683 453.561 333.961C453.263 337.693 452.832 340.479 452.366 342.508C451.612 345.793 448.603 347.167 445.232 347.167H443.126C440.656 348.342 437.892 349 434.975 349H368C357.507 349 349 340.493 349 330V326.254V277.444V262.65C349 252.35 357.35 244 367.65 244Z" fill="#395DF6" fill-opacity="0.5"/>
</g>
<g filter="url(#filter1_f_440_3)">
<path d="M367.65 349H371.1H434.975C440.44 349 445.367 351.308 448.834 355.003C449.49 355.486 450.067 356.223 450.575 357.151C452.718 360.227 453.975 363.967 453.975 368V377.005C454.011 378.613 454.006 380.089 453.975 381.341V427.157V434.998C453.975 436.357 453.832 437.683 453.561 438.961C453.263 442.693 452.832 445.479 452.366 447.508C451.612 450.793 448.603 452.167 445.232 452.167H443.126C440.656 453.342 437.892 454 434.975 454H368C357.507 454 349 445.493 349 435V431.254V382.444V367.65C349 357.35 357.35 349 367.65 349Z" fill="#395DF6" fill-opacity="0.5"/>
</g>
<g filter="url(#filter2_f_440_3)">
<path d="M473.306 349H476.756H540.631C546.097 349 551.023 351.308 554.49 355.003C555.146 355.486 555.723 356.223 556.231 357.151C558.374 360.227 559.631 363.967 559.631 368V377.005C559.667 378.613 559.662 380.089 559.631 381.341V427.157V434.998C559.631 436.357 559.488 437.683 559.217 438.961C558.919 442.693 558.488 445.479 558.022 447.508C557.268 450.793 554.259 452.167 550.889 452.167H548.782C546.312 453.342 543.548 454 540.631 454H473.656C463.163 454 454.656 445.493 454.656 435V431.254V382.444V367.65C454.656 357.35 463.006 349 473.306 349Z" fill="#395DF6" fill-opacity="0.5"/>
</g>
<g filter="url(#filter3_f_440_3)">
<path d="M473.306 244H476.756H540.631C546.097 244 551.023 246.308 554.49 250.003C555.146 250.486 555.723 251.223 556.231 252.151C558.374 255.227 559.631 258.967 559.631 263V272.005C559.667 273.613 559.662 275.089 559.631 276.341V322.157V329.998C559.631 331.357 559.488 332.683 559.217 333.961C558.919 337.693 558.488 340.479 558.022 342.508C557.268 345.793 554.259 347.167 550.889 347.167H548.782C546.312 348.342 543.548 349 540.631 349H473.656C463.163 349 454.656 340.493 454.656 330V326.254V277.444V262.65C454.656 252.35 463.006 244 473.306 244Z" fill="#395DF6" fill-opacity="0.5"/>
</g>
<g filter="url(#filter4_f_440_3)">
<path d="M367.65 139H371.1H434.975C440.44 139 445.367 141.308 448.834 145.003C449.49 145.486 450.067 146.223 450.575 147.151C452.718 150.227 453.975 153.967 453.975 158V167.005C454.011 168.613 454.006 170.089 453.975 171.341V217.157V224.998C453.975 226.357 453.832 227.683 453.561 228.961C453.263 232.693 452.832 235.479 452.366 237.508C451.612 240.793 448.603 242.167 445.232 242.167H443.126C440.656 243.342 437.892 244 434.975 244H368C357.507 244 349 235.493 349 225V221.254V172.444V157.65C349 147.35 357.35 139 367.65 139Z" fill="#395DF6" fill-opacity="0.5"/>
</g>
<g filter="url(#filter5_f_440_3)">
<path d="M157.65 139H161.1H224.975C230.44 139 235.367 141.308 238.834 145.003C239.49 145.486 240.067 146.223 240.575 147.151C242.718 150.227 243.975 153.967 243.975 158V167.005C244.011 168.613 244.006 170.089 243.975 171.341V217.157V224.998C243.975 226.357 243.832 227.683 243.561 228.961C243.263 232.693 242.832 235.479 242.366 237.508C241.612 240.793 238.603 242.167 235.232 242.167H233.126C230.656 243.342 227.892 244 224.975 244H158C147.507 244 139 235.493 139 225V221.254V172.444V157.65C139 147.35 147.35 139 157.65 139Z" fill="#395DF6" fill-opacity="0.5"/>
</g>
<g filter="url(#filter6_f_440_3)">
<path d="M262.65 34H266.1H329.975C335.44 34 340.367 36.308 343.834 40.0025C344.49 40.4862 345.067 41.2225 345.575 42.1509C347.718 45.2269 348.975 48.9667 348.975 53V62.0054C349.011 63.6127 349.006 65.0895 348.975 66.3409V112.157V119.998C348.975 121.357 348.832 122.683 348.561 123.961C348.263 127.693 347.832 130.479 347.366 132.508C346.612 135.793 343.603 137.167 340.232 137.167H338.126C335.656 138.342 332.892 139 329.975 139H263C252.507 139 244 130.493 244 120V116.254V67.4444V52.6499C244 42.3498 252.35 34 262.65 34Z" fill="#395DF6" fill-opacity="0.5"/>
</g>
<g filter="url(#filter7_f_440_3)">
<path d="M52.6499 244H56.0999H119.975C125.44 244 130.367 246.308 133.834 250.003C134.49 250.486 135.067 251.223 135.575 252.151C137.718 255.227 138.975 258.967 138.975 263V272.005C139.011 273.613 139.006 275.089 138.975 276.341V322.157V329.998C138.975 331.357 138.832 332.683 138.561 333.961C138.263 337.693 137.832 340.479 137.366 342.508C136.612 345.793 133.603 347.167 130.232 347.167H128.126C125.656 348.342 122.892 349 119.975 349H53C42.5066 349 34 340.493 34 330V326.254V277.444V262.65C34 252.35 42.3498 244 52.6499 244Z" fill="#395DF6" fill-opacity="0.5"/>
</g>
<g filter="url(#filter8_f_440_3)">
<path d="M52.6499 349H56.0999H119.975C125.44 349 130.367 351.308 133.834 355.003C134.49 355.486 135.067 356.223 135.575 357.151C137.718 360.227 138.975 363.967 138.975 368V377.005C139.011 378.613 139.006 380.089 138.975 381.341V427.157V434.998C138.975 436.357 138.832 437.683 138.561 438.961C138.263 442.693 137.832 445.479 137.366 447.508C136.612 450.793 133.603 452.167 130.232 452.167H128.126C125.656 453.342 122.892 454 119.975 454H53C42.5066 454 34 445.493 34 435V431.254V382.444V367.65C34 357.35 42.3498 349 52.6499 349Z" fill="#395DF6" fill-opacity="0.5"/>
</g>
<g filter="url(#filter9_f_440_3)">
<path d="M262.65 139H266.1H329.975C335.44 139 340.367 141.308 343.834 145.003C344.49 145.486 345.067 146.223 345.575 147.151C347.718 150.227 348.975 153.967 348.975 158V167.005C349.011 168.613 349.006 170.089 348.975 171.341V217.157V224.998C348.975 226.357 348.832 227.683 348.561 228.961C348.263 232.693 347.832 235.479 347.366 237.508C346.612 240.793 343.603 242.167 340.232 242.167H338.126C335.656 243.342 332.892 244 329.975 244H263C252.507 244 244 235.493 244 225V221.254V172.444V157.65C244 147.35 252.35 139 262.65 139Z" fill="#395DF6" fill-opacity="0.5"/>
</g>
<g filter="url(#filter10_f_440_3)">
<path d="M157.65 244H161.1H224.975C230.44 244 235.367 246.308 238.834 250.003C239.49 250.486 240.067 251.223 240.575 252.151C242.718 255.227 243.975 258.967 243.975 263V272.005C244.011 273.613 244.006 275.089 243.975 276.341V322.157V329.998C243.975 331.357 243.832 332.683 243.561 333.961C243.263 337.693 242.832 340.479 242.366 342.508C241.612 345.793 238.603 347.167 235.232 347.167H233.126C230.656 348.342 227.892 349 224.975 349H158C147.507 349 139 340.493 139 330V326.254V277.444V262.65C139 252.35 147.35 244 157.65 244Z" fill="#395DF6" fill-opacity="0.5"/>
</g>
<g filter="url(#filter11_f_440_3)">
<path d="M157.65 349H161.1H224.975C230.44 349 235.367 351.308 238.834 355.003C239.49 355.486 240.067 356.223 240.575 357.151C242.718 360.227 243.975 363.967 243.975 368V377.005C244.011 378.613 244.006 380.089 243.975 381.341V427.157V434.998C243.975 436.357 243.832 437.683 243.561 438.961C243.263 442.693 242.832 445.479 242.366 447.508C241.612 450.793 238.603 452.167 235.232 452.167H233.126C230.656 453.342 227.892 454 224.975 454H158C147.507 454 139 445.493 139 435V431.254V382.444V367.65C139 357.35 147.35 349 157.65 349Z" fill="#395DF6" fill-opacity="0.5"/>
</g>
<path d="M454.975 277.341V264C454.975 253.507 446.468 245 435.975 245H368.65C358.35 245 350 253.35 350 263.65V263.65M454.975 277.341C455.167 269.723 454.353 253.754 449.565 250.821C443.579 247.156 441.277 246.509 437.479 246.401C434.44 246.315 400.224 246.366 383.495 246.401C381.193 246.653 375.691 247.76 372.1 250.175M454.975 277.341V323.157M372.1 250.175C367.611 253.193 363.697 256.613 361.395 258.475M372.1 250.175C373.098 248.917 374.494 245 372.1 245M361.395 258.475C360.473 259.221 360.542 261.812 361.014 264.384C361.384 266.393 358.568 269.104 356.897 270.278V270.278C355.515 271.248 350 273.809 350 278.444M361.395 258.475C359.707 259.841 355.732 263.003 353.338 264.728C350.345 266.884 350 265.59 350 263.65M350 278.444V263.65M350 278.444V327.254M350 327.254C350.576 331.206 352.667 339.183 354.489 341.268C356.561 343.64 360.129 347.952 379.121 348.167C394.315 348.34 425.662 348.239 439.436 348.167H446.232C449.603 348.167 452.612 346.793 453.366 343.508C454.232 339.739 454.975 333.361 454.975 323.157M350 327.254V331C350 341.493 358.507 350 369 350H435.975C446.468 350 454.975 341.491 454.975 330.998C454.975 327.977 454.975 325.311 454.975 323.157" stroke="#395DF6" stroke-linejoin="round"/>
<path d="M454.975 382.341V369C454.975 358.507 446.468 350 435.975 350H368.65C358.35 350 350 358.35 350 368.65V368.65M454.975 382.341C455.167 374.723 454.353 358.754 449.565 355.821C443.579 352.156 441.277 351.509 437.479 351.401C434.44 351.315 400.224 351.366 383.495 351.401C381.193 351.653 375.691 352.76 372.1 355.175M454.975 382.341V428.157M372.1 355.175C367.611 358.193 363.697 361.613 361.395 363.475M372.1 355.175C373.098 353.917 374.494 350 372.1 350M361.395 363.475C360.473 364.221 360.542 366.812 361.014 369.384C361.384 371.393 358.568 374.104 356.897 375.278V375.278C355.515 376.248 350 378.809 350 383.444M361.395 363.475C359.707 364.841 355.732 368.003 353.338 369.728C350.345 371.884 350 370.59 350 368.65M350 383.444V368.65M350 383.444V432.254M350 432.254C350.576 436.206 352.667 444.183 354.489 446.268C356.561 448.64 360.129 452.952 379.121 453.167C394.315 453.34 425.662 453.239 439.436 453.167H446.232C449.603 453.167 452.612 451.793 453.366 448.508C454.232 444.739 454.975 438.361 454.975 428.157M350 432.254V436C350 446.493 358.507 455 369 455H435.975C446.468 455 454.975 446.491 454.975 435.998C454.975 432.977 454.975 430.311 454.975 428.157" stroke="#395DF6" stroke-linejoin="round"/>
<path d="M349.975 172.341V159C349.975 148.507 341.468 140 330.975 140H263.65C253.35 140 245 148.35 245 158.65V158.65M349.975 172.341C350.167 164.723 349.353 148.754 344.565 145.821C338.579 142.156 336.277 141.509 332.479 141.401C329.44 141.315 295.224 141.366 278.495 141.401C276.193 141.653 270.691 142.76 267.1 145.175M349.975 172.341V218.157M267.1 145.175C262.611 148.193 258.697 151.613 256.395 153.475M267.1 145.175C268.098 143.917 269.494 140 267.1 140M256.395 153.475C255.473 154.221 255.542 156.812 256.014 159.384C256.384 161.393 253.568 164.104 251.897 165.278V165.278C250.515 166.248 245 168.809 245 173.444M256.395 153.475C254.707 154.841 250.732 158.003 248.338 159.728C245.345 161.884 245 160.59 245 158.65M245 173.444V158.65M245 173.444V222.254M245 222.254C245.576 226.206 247.667 234.183 249.489 236.268C251.561 238.64 255.129 242.952 274.121 243.167C289.315 243.34 320.662 243.239 334.436 243.167H341.232C344.603 243.167 347.612 241.793 348.366 238.508C349.232 234.739 349.975 228.361 349.975 218.157M245 222.254V226C245 236.493 253.507 245 264 245H330.975C341.468 245 349.975 236.491 349.975 225.998C349.975 222.977 349.975 220.311 349.975 218.157" stroke="#395DF6" stroke-linejoin="round"/>
<path d="M244.975 277.341V264C244.975 253.507 236.468 245 225.975 245H158.65C148.35 245 140 253.35 140 263.65V263.65M244.975 277.341C245.167 269.723 244.353 253.754 239.565 250.821C233.579 247.156 231.277 246.509 227.479 246.401C224.44 246.315 190.224 246.366 173.495 246.401C171.193 246.653 165.691 247.76 162.1 250.175M244.975 277.341V323.157M162.1 250.175C157.611 253.193 153.697 256.613 151.395 258.475M162.1 250.175C163.098 248.917 164.494 245 162.1 245M151.395 258.475C150.473 259.221 150.542 261.812 151.014 264.384C151.384 266.393 148.568 269.104 146.897 270.278V270.278C145.515 271.248 140 273.809 140 278.444M151.395 258.475C149.707 259.841 145.732 263.003 143.338 264.728C140.345 266.884 140 265.59 140 263.65M140 278.444V263.65M140 278.444V327.254M140 327.254C140.576 331.206 142.667 339.183 144.489 341.268C146.561 343.64 150.129 347.952 169.121 348.167C184.315 348.34 215.662 348.239 229.436 348.167H236.232C239.603 348.167 242.612 346.793 243.366 343.508C244.232 339.739 244.975 333.361 244.975 323.157M140 327.254V331C140 341.493 148.507 350 159 350H225.975C236.468 350 244.975 341.491 244.975 330.998C244.975 327.977 244.975 325.311 244.975 323.157" stroke="#395DF6" stroke-linejoin="round"/>
<path d="M244.975 382.341V369C244.975 358.507 236.468 350 225.975 350H158.65C148.35 350 140 358.35 140 368.65V368.65M244.975 382.341C245.167 374.723 244.353 358.754 239.565 355.821C233.579 352.156 231.277 351.509 227.479 351.401C224.44 351.315 190.224 351.366 173.495 351.401C171.193 351.653 165.691 352.76 162.1 355.175M244.975 382.341V428.157M162.1 355.175C157.611 358.193 153.697 361.613 151.395 363.475M162.1 355.175C163.098 353.917 164.494 350 162.1 350M151.395 363.475C150.473 364.221 150.542 366.812 151.014 369.384C151.384 371.393 148.568 374.104 146.897 375.278V375.278C145.515 376.248 140 378.809 140 383.444M151.395 363.475C149.707 364.841 145.732 368.003 143.338 369.728C140.345 371.884 140 370.59 140 368.65M140 383.444V368.65M140 383.444V432.254M140 432.254C140.576 436.206 142.667 444.183 144.489 446.268C146.561 448.64 150.129 452.952 169.121 453.167C184.315 453.34 215.662 453.239 229.436 453.167H236.232C239.603 453.167 242.612 451.793 243.366 448.508C244.232 444.739 244.975 438.361 244.975 428.157M140 432.254V436C140 446.493 148.507 455 159 455H225.975C236.468 455 244.975 446.491 244.975 435.998C244.975 432.977 244.975 430.311 244.975 428.157" stroke="#395DF6" stroke-linejoin="round"/>
<g filter="url(#filter12_f_440_3)">
<path d="M368.65 245H372.1H435.975C441.44 245 446.367 247.308 449.834 251.003C450.49 251.486 451.067 252.223 451.575 253.151C453.718 256.227 454.975 259.967 454.975 264V273.005C455.011 274.613 455.006 276.089 454.975 277.341V323.157V330.998C454.975 332.357 454.832 333.683 454.561 334.961C454.263 338.693 453.832 341.479 453.366 343.508C452.612 346.793 449.603 348.167 446.232 348.167H444.126C441.656 349.342 438.892 350 435.975 350H369C358.507 350 350 341.493 350 331V327.254V278.444V263.65C350 253.35 358.35 245 368.65 245Z" fill="#395DF6" fill-opacity="0.8"/>
</g>
<g filter="url(#filter13_f_440_3)">
<path d="M368.65 350H372.1H435.975C441.44 350 446.367 352.308 449.834 356.003C450.49 356.486 451.067 357.223 451.575 358.151C453.718 361.227 454.975 364.967 454.975 369V378.005C455.011 379.613 455.006 381.089 454.975 382.341V428.157V435.998C454.975 437.357 454.832 438.683 454.561 439.961C454.263 443.693 453.832 446.479 453.366 448.508C452.612 451.793 449.603 453.167 446.232 453.167H444.126C441.656 454.342 438.892 455 435.975 455H369C358.507 455 350 446.493 350 436V432.254V383.444V368.65C350 358.35 358.35 350 368.65 350Z" fill="#395DF6" fill-opacity="0.8"/>
</g>
<g filter="url(#filter14_f_440_3)">
<path d="M263.65 140H267.1H330.975C336.44 140 341.367 142.308 344.834 146.003C345.49 146.486 346.067 147.223 346.575 148.151C348.718 151.227 349.975 154.967 349.975 159V168.005C350.011 169.613 350.006 171.089 349.975 172.341V218.157V225.998C349.975 227.357 349.832 228.683 349.561 229.961C349.263 233.693 348.832 236.479 348.366 238.508C347.612 241.793 344.603 243.167 341.232 243.167H339.126C336.656 244.342 333.892 245 330.975 245H264C253.507 245 245 236.493 245 226V222.254V173.444V158.65C245 148.35 253.35 140 263.65 140Z" fill="#395DF6" fill-opacity="0.8"/>
</g>
<g filter="url(#filter15_f_440_3)">
<path d="M158.65 245H162.1H225.975C231.44 245 236.367 247.308 239.834 251.003C240.49 251.486 241.067 252.223 241.575 253.151C243.718 256.227 244.975 259.967 244.975 264V273.005C245.011 274.613 245.006 276.089 244.975 277.341V323.157V330.998C244.975 332.357 244.832 333.683 244.561 334.961C244.263 338.693 243.832 341.479 243.366 343.508C242.612 346.793 239.603 348.167 236.232 348.167H234.126C231.656 349.342 228.892 350 225.975 350H159C148.507 350 140 341.493 140 331V327.254V278.444V263.65C140 253.35 148.35 245 158.65 245Z" fill="#395DF6" fill-opacity="0.8"/>
</g>
<g filter="url(#filter16_f_440_3)">
<path d="M158.65 350H162.1H225.975C231.44 350 236.367 352.308 239.834 356.003C240.49 356.486 241.067 357.223 241.575 358.151C243.718 361.227 244.975 364.967 244.975 369V378.005C245.011 379.613 245.006 381.089 244.975 382.341V428.157V435.998C244.975 437.357 244.832 438.683 244.561 439.961C244.263 443.693 243.832 446.479 243.366 448.508C242.612 451.793 239.603 453.167 236.232 453.167H234.126C231.656 454.342 228.892 455 225.975 455H159C148.507 455 140 446.493 140 436V432.254V383.444V368.65C140 358.35 148.35 350 158.65 350Z" fill="#395DF6" fill-opacity="0.8"/>
</g>
<defs>
<filter id="filter0_f_440_3" x="315.4" y="210.4" width="172.2" height="172.2" filterUnits="userSpaceOnUse" color-interpolation-filters="sRGB">
<feFlood flood-opacity="0" result="BackgroundImageFix"/>
<feBlend mode="normal" in="SourceGraphic" in2="BackgroundImageFix" result="shape"/>
<feGaussianBlur stdDeviation="16.8" result="effect1_foregroundBlur_440_3"/>
</filter>
<filter id="filter1_f_440_3" x="315.4" y="315.4" width="172.2" height="172.2" filterUnits="userSpaceOnUse" color-interpolation-filters="sRGB">
<feFlood flood-opacity="0" result="BackgroundImageFix"/>
<feBlend mode="normal" in="SourceGraphic" in2="BackgroundImageFix" result="shape"/>
<feGaussianBlur stdDeviation="16.8" result="effect1_foregroundBlur_440_3"/>
</filter>
<filter id="filter2_f_440_3" x="421.056" y="315.4" width="172.2" height="172.2" filterUnits="userSpaceOnUse" color-interpolation-filters="sRGB">
<feFlood flood-opacity="0" result="BackgroundImageFix"/>
<feBlend mode="normal" in="SourceGraphic" in2="BackgroundImageFix" result="shape"/>
<feGaussianBlur stdDeviation="16.8" result="effect1_foregroundBlur_440_3"/>
</filter>
<filter id="filter3_f_440_3" x="421.056" y="210.4" width="172.2" height="172.2" filterUnits="userSpaceOnUse" color-interpolation-filters="sRGB">
<feFlood flood-opacity="0" result="BackgroundImageFix"/>
<feBlend mode="normal" in="SourceGraphic" in2="BackgroundImageFix" result="shape"/>
<feGaussianBlur stdDeviation="16.8" result="effect1_foregroundBlur_440_3"/>
</filter>
<filter id="filter4_f_440_3" x="315.4" y="105.4" width="172.2" height="172.2" filterUnits="userSpaceOnUse" color-interpolation-filters="sRGB">
<feFlood flood-opacity="0" result="BackgroundImageFix"/>
<feBlend mode="normal" in="SourceGraphic" in2="BackgroundImageFix" result="shape"/>
<feGaussianBlur stdDeviation="16.8" result="effect1_foregroundBlur_440_3"/>
</filter>
<filter id="filter5_f_440_3" x="105.4" y="105.4" width="172.2" height="172.2" filterUnits="userSpaceOnUse" color-interpolation-filters="sRGB">
<feFlood flood-opacity="0" result="BackgroundImageFix"/>
<feBlend mode="normal" in="SourceGraphic" in2="BackgroundImageFix" result="shape"/>
<feGaussianBlur stdDeviation="16.8" result="effect1_foregroundBlur_440_3"/>
</filter>
<filter id="filter6_f_440_3" x="210.4" y="0.400002" width="172.2" height="172.2" filterUnits="userSpaceOnUse" color-interpolation-filters="sRGB">
<feFlood flood-opacity="0" result="BackgroundImageFix"/>
<feBlend mode="normal" in="SourceGraphic" in2="BackgroundImageFix" result="shape"/>
<feGaussianBlur stdDeviation="16.8" result="effect1_foregroundBlur_440_3"/>
</filter>
<filter id="filter7_f_440_3" x="0.400002" y="210.4" width="172.2" height="172.2" filterUnits="userSpaceOnUse" color-interpolation-filters="sRGB">
<feFlood flood-opacity="0" result="BackgroundImageFix"/>
<feBlend mode="normal" in="SourceGraphic" in2="BackgroundImageFix" result="shape"/>
<feGaussianBlur stdDeviation="16.8" result="effect1_foregroundBlur_440_3"/>
</filter>
<filter id="filter8_f_440_3" x="0.400002" y="315.4" width="172.2" height="172.2" filterUnits="userSpaceOnUse" color-interpolation-filters="sRGB">
<feFlood flood-opacity="0" result="BackgroundImageFix"/>
<feBlend mode="normal" in="SourceGraphic" in2="BackgroundImageFix" result="shape"/>
<feGaussianBlur stdDeviation="16.8" result="effect1_foregroundBlur_440_3"/>
</filter>
<filter id="filter9_f_440_3" x="210.4" y="105.4" width="172.2" height="172.2" filterUnits="userSpaceOnUse" color-interpolation-filters="sRGB">
<feFlood flood-opacity="0" result="BackgroundImageFix"/>
<feBlend mode="normal" in="SourceGraphic" in2="BackgroundImageFix" result="shape"/>
<feGaussianBlur stdDeviation="16.8" result="effect1_foregroundBlur_440_3"/>
</filter>
<filter id="filter10_f_440_3" x="105.4" y="210.4" width="172.2" height="172.2" filterUnits="userSpaceOnUse" color-interpolation-filters="sRGB">
<feFlood flood-opacity="0" result="BackgroundImageFix"/>
<feBlend mode="normal" in="SourceGraphic" in2="BackgroundImageFix" result="shape"/>
<feGaussianBlur stdDeviation="16.8" result="effect1_foregroundBlur_440_3"/>
</filter>
<filter id="filter11_f_440_3" x="105.4" y="315.4" width="172.2" height="172.2" filterUnits="userSpaceOnUse" color-interpolation-filters="sRGB">
<feFlood flood-opacity="0" result="BackgroundImageFix"/>
<feBlend mode="normal" in="SourceGraphic" in2="BackgroundImageFix" result="shape"/>
<feGaussianBlur stdDeviation="16.8" result="effect1_foregroundBlur_440_3"/>
</filter>
<filter id="filter12_f_440_3" x="316.4" y="211.4" width="172.2" height="172.2" filterUnits="userSpaceOnUse" color-interpolation-filters="sRGB">
<feFlood flood-opacity="0" result="BackgroundImageFix"/>
<feBlend mode="normal" in="SourceGraphic" in2="BackgroundImageFix" result="shape"/>
<feGaussianBlur stdDeviation="16.8" result="effect1_foregroundBlur_440_3"/>
</filter>
<filter id="filter13_f_440_3" x="316.4" y="316.4" width="172.2" height="172.2" filterUnits="userSpaceOnUse" color-interpolation-filters="sRGB">
<feFlood flood-opacity="0" result="BackgroundImageFix"/>
<feBlend mode="normal" in="SourceGraphic" in2="BackgroundImageFix" result="shape"/>
<feGaussianBlur stdDeviation="16.8" result="effect1_foregroundBlur_440_3"/>
</filter>
<filter id="filter14_f_440_3" x="211.4" y="106.4" width="172.2" height="172.2" filterUnits="userSpaceOnUse" color-interpolation-filters="sRGB">
<feFlood flood-opacity="0" result="BackgroundImageFix"/>
<feBlend mode="normal" in="SourceGraphic" in2="BackgroundImageFix" result="shape"/>
<feGaussianBlur stdDeviation="16.8" result="effect1_foregroundBlur_440_3"/>
</filter>
<filter id="filter15_f_440_3" x="106.4" y="211.4" width="172.2" height="172.2" filterUnits="userSpaceOnUse" color-interpolation-filters="sRGB">
<feFlood flood-opacity="0" result="BackgroundImageFix"/>
<feBlend mode="normal" in="SourceGraphic" in2="BackgroundImageFix" result="shape"/>
<feGaussianBlur stdDeviation="16.8" result="effect1_foregroundBlur_440_3"/>
</filter>
<filter id="filter16_f_440_3" x="106.4" y="316.4" width="172.2" height="172.2" filterUnits="userSpaceOnUse" color-interpolation-filters="sRGB">
<feFlood flood-opacity="0" result="BackgroundImageFix"/>
<feBlend mode="normal" in="SourceGraphic" in2="BackgroundImageFix" result="shape"/>
<feGaussianBlur stdDeviation="16.8" result="effect1_foregroundBlur_440_3"/>
</filter>
</defs>
</svg>
