<svg width="583" height="488" viewBox="0 0 583 488" fill="none" xmlns="http://www.w3.org/2000/svg">
<path d="M442.975 276.341V263C442.975 252.507 434.468 244 423.975 244H356.65C346.35 244 338 252.35 338 262.65V262.65M442.975 276.341C443.167 268.723 442.353 252.754 437.565 249.821C431.579 246.156 429.277 245.509 425.479 245.401C422.44 245.315 388.224 245.366 371.495 245.401C369.193 245.653 363.691 246.76 360.1 249.175M442.975 276.341V322.157M360.1 249.175C355.611 252.193 351.697 255.613 349.395 257.475M360.1 249.175C361.098 247.917 362.494 244 360.1 244M349.395 257.475C348.473 258.221 348.542 260.812 349.014 263.384C349.384 265.393 346.568 268.104 344.897 269.278V269.278C343.515 270.248 338 272.809 338 277.444M349.395 257.475C347.707 258.841 343.732 262.003 341.338 263.728C338.345 265.884 338 264.59 338 262.65M338 277.444V262.65M338 277.444V326.254M338 326.254C338.576 330.206 340.667 338.183 342.489 340.268C344.561 342.64 348.129 346.952 367.121 347.167C382.315 347.34 413.662 347.239 427.436 347.167H434.232C437.603 347.167 440.612 345.793 441.366 342.508C442.232 338.739 442.975 332.361 442.975 322.157M338 326.254V330C338 340.493 346.507 349 357 349H423.975C434.468 349 442.975 340.491 442.975 329.998C442.975 326.977 442.975 324.311 442.975 322.157" stroke="#395DF6" stroke-linejoin="round"/>
<path d="M442.975 381.341V368C442.975 357.507 434.468 349 423.975 349H356.65C346.35 349 338 357.35 338 367.65V367.65M442.975 381.341C443.167 373.723 442.353 357.754 437.565 354.821C431.579 351.156 429.277 350.509 425.479 350.401C422.44 350.315 388.224 350.366 371.495 350.401C369.193 350.653 363.691 351.76 360.1 354.175M442.975 381.341V427.157M360.1 354.175C355.611 357.193 351.697 360.613 349.395 362.475M360.1 354.175C361.098 352.917 362.494 349 360.1 349M349.395 362.475C348.473 363.221 348.542 365.812 349.014 368.384C349.384 370.393 346.568 373.104 344.897 374.278V374.278C343.515 375.248 338 377.809 338 382.444M349.395 362.475C347.707 363.841 343.732 367.003 341.338 368.728C338.345 370.884 338 369.59 338 367.65M338 382.444V367.65M338 382.444V431.254M338 431.254C338.576 435.206 340.667 443.183 342.489 445.268C344.561 447.64 348.129 451.952 367.121 452.167C382.315 452.34 413.662 452.239 427.436 452.167H434.232C437.603 452.167 440.612 450.793 441.366 447.508C442.232 443.739 442.975 437.361 442.975 427.157M338 431.254V435C338 445.493 346.507 454 357 454H423.975C434.468 454 442.975 445.491 442.975 434.998C442.975 431.977 442.975 429.311 442.975 427.157" stroke="#395DF6" stroke-linejoin="round"/>
<path d="M548.631 381.341V368C548.631 357.507 540.124 349 529.631 349H462.306C452.006 349 443.656 357.35 443.656 367.65V367.65M548.631 381.341C548.823 373.723 548.009 357.754 543.221 354.821C537.236 351.156 534.934 350.509 531.135 350.401C528.096 350.315 493.88 350.366 477.151 350.401C474.849 350.653 469.347 351.76 465.756 354.175M548.631 381.341V427.157M465.756 354.175C461.267 357.193 457.354 360.613 455.052 362.475M465.756 354.175C466.754 352.917 468.15 349 465.756 349M455.052 362.475C454.13 363.221 454.198 365.812 454.671 368.384C455.04 370.393 452.224 373.104 450.553 374.278V374.278C449.172 375.248 443.656 377.809 443.656 382.444M455.052 362.475C453.363 363.841 449.388 367.003 446.994 368.728C444.002 370.884 443.656 369.59 443.656 367.65M443.656 382.444V367.65M443.656 382.444V431.254M443.656 431.254C444.232 435.206 446.324 443.183 448.145 445.268C450.217 447.64 453.785 451.952 472.778 452.167C487.971 452.34 519.318 452.239 533.092 452.167H539.889C543.259 452.167 546.268 450.793 547.022 447.508C547.888 443.739 548.631 437.361 548.631 427.157M443.656 431.254V435C443.656 445.493 452.163 454 462.656 454H529.631C540.124 454 548.631 445.491 548.631 434.998C548.631 431.977 548.631 429.311 548.631 427.157" stroke="#395DF6" stroke-linejoin="round"/>
<path d="M548.631 276.341V263C548.631 252.507 540.124 244 529.631 244H462.306C452.006 244 443.656 252.35 443.656 262.65V262.65M548.631 276.341C548.823 268.723 548.009 252.754 543.221 249.821C537.236 246.156 534.934 245.509 531.135 245.401C528.096 245.315 493.88 245.366 477.151 245.401C474.849 245.653 469.347 246.76 465.756 249.175M548.631 276.341V322.157M465.756 249.175C461.267 252.193 457.354 255.613 455.052 257.475M465.756 249.175C466.754 247.917 468.15 244 465.756 244M455.052 257.475C454.13 258.221 454.198 260.812 454.671 263.384C455.04 265.393 452.224 268.104 450.553 269.278V269.278C449.172 270.248 443.656 272.809 443.656 277.444M455.052 257.475C453.363 258.841 449.388 262.003 446.994 263.728C444.002 265.884 443.656 264.59 443.656 262.65M443.656 277.444V262.65M443.656 277.444V326.254M443.656 326.254C444.232 330.206 446.324 338.183 448.145 340.268C450.217 342.64 453.785 346.952 472.778 347.167C487.971 347.34 519.318 347.239 533.092 347.167H539.889C543.259 347.167 546.268 345.793 547.022 342.508C547.888 338.739 548.631 332.361 548.631 322.157M443.656 326.254V330C443.656 340.493 452.163 349 462.656 349H529.631C540.124 349 548.631 340.491 548.631 329.998C548.631 326.977 548.631 324.311 548.631 322.157" stroke="#395DF6" stroke-linejoin="round"/>
<path d="M442.975 171.341V158C442.975 147.507 434.468 139 423.975 139H356.65C346.35 139 338 147.35 338 157.65V157.65M442.975 171.341C443.167 163.723 442.353 147.754 437.565 144.821C431.579 141.156 429.277 140.509 425.479 140.401C422.44 140.315 388.224 140.366 371.495 140.401C369.193 140.653 363.691 141.76 360.1 144.175M442.975 171.341V217.157M360.1 144.175C355.611 147.193 351.697 150.613 349.395 152.475M360.1 144.175C361.098 142.917 362.494 139 360.1 139M349.395 152.475C348.473 153.221 348.542 155.812 349.014 158.384C349.384 160.393 346.568 163.104 344.897 164.278V164.278C343.515 165.248 338 167.809 338 172.444M349.395 152.475C347.707 153.841 343.732 157.003 341.338 158.728C338.345 160.884 338 159.59 338 157.65M338 172.444V157.65M338 172.444V221.254M338 221.254C338.576 225.206 340.667 233.183 342.489 235.268C344.561 237.64 348.129 241.952 367.121 242.167C382.315 242.34 413.662 242.239 427.436 242.167H434.232C437.603 242.167 440.612 240.793 441.366 237.508C442.232 233.739 442.975 227.361 442.975 217.157M338 221.254V225C338 235.493 346.507 244 357 244H423.975C434.468 244 442.975 235.491 442.975 224.998C442.975 221.977 442.975 219.311 442.975 217.157" stroke="#395DF6" stroke-linejoin="round"/>
<path d="M232.975 171.341V158C232.975 147.507 224.468 139 213.975 139H146.65C136.35 139 128 147.35 128 157.65V157.65M232.975 171.341C233.167 163.723 232.353 147.754 227.565 144.821C221.579 141.156 219.277 140.509 215.479 140.401C212.44 140.315 178.224 140.366 161.495 140.401C159.193 140.653 153.691 141.76 150.1 144.175M232.975 171.341V217.157M150.1 144.175C145.611 147.193 141.697 150.613 139.395 152.475M150.1 144.175C151.098 142.917 152.494 139 150.1 139M139.395 152.475C138.473 153.221 138.542 155.812 139.014 158.384C139.384 160.393 136.568 163.104 134.897 164.278V164.278C133.515 165.248 128 167.809 128 172.444M139.395 152.475C137.707 153.841 133.732 157.003 131.338 158.728C128.345 160.884 128 159.59 128 157.65M128 172.444V157.65M128 172.444V221.254M128 221.254C128.576 225.206 130.667 233.183 132.489 235.268C134.561 237.64 138.129 241.952 157.121 242.167C172.315 242.34 203.662 242.239 217.436 242.167H224.232C227.603 242.167 230.612 240.793 231.366 237.508C232.232 233.739 232.975 227.361 232.975 217.157M128 221.254V225C128 235.493 136.507 244 147 244H213.975C224.468 244 232.975 235.491 232.975 224.998C232.975 221.977 232.975 219.311 232.975 217.157" stroke="#395DF6" stroke-linejoin="round"/>
<path d="M337.975 66.3409V53C337.975 42.5066 329.468 34 318.975 34H251.65C241.35 34 233 42.3498 233 52.6499V52.6499M337.975 66.3409C338.167 58.7228 337.353 42.7536 332.565 39.8214C326.579 36.1561 324.277 35.5092 320.479 35.4014C317.44 35.3152 283.224 35.3655 266.495 35.4014C264.193 35.653 258.691 36.7598 255.1 39.1745M337.975 66.3409V112.157M255.1 39.1745C250.611 42.193 246.697 45.6133 244.395 47.4754M255.1 39.1745C256.098 37.9168 257.494 34 255.1 34M244.395 47.4754C243.473 48.221 243.542 50.8122 244.014 53.3836C244.384 55.3927 241.568 58.1036 239.897 59.2778V59.2778C238.515 60.248 233 62.8089 233 67.4444M244.395 47.4754C242.707 48.8409 238.732 52.0031 236.338 53.7279C233.345 55.884 233 54.5904 233 52.6499M233 67.4444V52.6499M233 67.4444V116.254M233 116.254C233.576 120.206 235.667 128.183 237.489 130.268C239.561 132.64 243.129 136.952 262.121 137.167C277.315 137.34 308.662 137.239 322.436 137.167H329.232C332.603 137.167 335.612 135.793 336.366 132.508C337.232 128.739 337.975 122.361 337.975 112.157M233 116.254V120C233 130.493 241.507 139 252 139H318.975C329.468 139 337.975 130.491 337.975 119.998C337.975 116.977 337.975 114.311 337.975 112.157" stroke="#395DF6" stroke-linejoin="round"/>
<path d="M127.975 276.341V263C127.975 252.507 119.468 244 108.975 244H41.6499C31.3498 244 23 252.35 23 262.65V262.65M127.975 276.341C128.167 268.723 127.353 252.754 122.565 249.821C116.579 246.156 114.277 245.509 110.479 245.401C107.44 245.315 73.2236 245.366 56.4952 245.401C54.1931 245.653 48.6912 246.76 45.0999 249.175M127.975 276.341V322.157M45.0999 249.175C40.6109 252.193 36.6974 255.613 34.3953 257.475M45.0999 249.175C46.0975 247.917 47.4941 244 45.0999 244M34.3953 257.475C33.4735 258.221 33.5419 260.812 34.0145 263.384C34.3837 265.393 31.5681 268.104 29.8966 269.278V269.278C28.5153 270.248 23 272.809 23 277.444M34.3953 257.475C32.7071 258.841 28.7322 262.003 26.338 263.728C23.3453 265.884 23 264.59 23 262.65M23 277.444V262.65M23 277.444V326.254M23 326.254C23.5755 330.206 25.6674 338.183 27.489 340.268C29.5609 342.64 33.1291 346.952 52.1213 347.167C67.315 347.34 98.6616 347.239 112.436 347.167H119.232C122.603 347.167 125.612 345.793 126.366 342.508C127.232 338.739 127.975 332.361 127.975 322.157M23 326.254V330C23 340.493 31.5066 349 42 349H108.975C119.468 349 127.975 340.491 127.975 329.998C127.975 326.977 127.975 324.311 127.975 322.157" stroke="#395DF6" stroke-linejoin="round"/>
<path d="M127.975 381.341V368C127.975 357.507 119.468 349 108.975 349H41.6499C31.3498 349 23 357.35 23 367.65V367.65M127.975 381.341C128.167 373.723 127.353 357.754 122.565 354.821C116.579 351.156 114.277 350.509 110.479 350.401C107.44 350.315 73.2236 350.366 56.4952 350.401C54.1931 350.653 48.6912 351.76 45.0999 354.175M127.975 381.341V427.157M45.0999 354.175C40.6109 357.193 36.6974 360.613 34.3953 362.475M45.0999 354.175C46.0975 352.917 47.4941 349 45.0999 349M34.3953 362.475C33.4735 363.221 33.5419 365.812 34.0145 368.384C34.3837 370.393 31.5681 373.104 29.8966 374.278V374.278C28.5153 375.248 23 377.809 23 382.444M34.3953 362.475C32.7071 363.841 28.7322 367.003 26.338 368.728C23.3453 370.884 23 369.59 23 367.65M23 382.444V367.65M23 382.444V431.254M23 431.254C23.5755 435.206 25.6674 443.183 27.489 445.268C29.5609 447.64 33.1291 451.952 52.1213 452.167C67.315 452.34 98.6616 452.239 112.436 452.167H119.232C122.603 452.167 125.612 450.793 126.366 447.508C127.232 443.739 127.975 437.361 127.975 427.157M23 431.254V435C23 445.493 31.5066 454 42 454H108.975C119.468 454 127.975 445.491 127.975 434.998C127.975 431.977 127.975 429.311 127.975 427.157" stroke="#395DF6" stroke-linejoin="round"/>
<path d="M337.975 171.341V158C337.975 147.507 329.468 139 318.975 139H251.65C241.35 139 233 147.35 233 157.65V157.65M337.975 171.341C338.167 163.723 337.353 147.754 332.565 144.821C326.579 141.156 324.277 140.509 320.479 140.401C317.44 140.315 283.224 140.366 266.495 140.401C264.193 140.653 258.691 141.76 255.1 144.175M337.975 171.341V217.157M255.1 144.175C250.611 147.193 246.697 150.613 244.395 152.475M255.1 144.175C256.098 142.917 257.494 139 255.1 139M244.395 152.475C243.473 153.221 243.542 155.812 244.014 158.384C244.384 160.393 241.568 163.104 239.897 164.278V164.278C238.515 165.248 233 167.809 233 172.444M244.395 152.475C242.707 153.841 238.732 157.003 236.338 158.728C233.345 160.884 233 159.59 233 157.65M233 172.444V157.65M233 172.444V221.254M233 221.254C233.576 225.206 235.667 233.183 237.489 235.268C239.561 237.64 243.129 241.952 262.121 242.167C277.315 242.34 308.662 242.239 322.436 242.167H329.232C332.603 242.167 335.612 240.793 336.366 237.508C337.232 233.739 337.975 227.361 337.975 217.157M233 221.254V225C233 235.493 241.507 244 252 244H318.975C329.468 244 337.975 235.491 337.975 224.998C337.975 221.977 337.975 219.311 337.975 217.157" stroke="#395DF6" stroke-linejoin="round"/>
<path d="M232.975 276.341V263C232.975 252.507 224.468 244 213.975 244H146.65C136.35 244 128 252.35 128 262.65V262.65M232.975 276.341C233.167 268.723 232.353 252.754 227.565 249.821C221.579 246.156 219.277 245.509 215.479 245.401C212.44 245.315 178.224 245.366 161.495 245.401C159.193 245.653 153.691 246.76 150.1 249.175M232.975 276.341V322.157M150.1 249.175C145.611 252.193 141.697 255.613 139.395 257.475M150.1 249.175C151.098 247.917 152.494 244 150.1 244M139.395 257.475C138.473 258.221 138.542 260.812 139.014 263.384C139.384 265.393 136.568 268.104 134.897 269.278V269.278C133.515 270.248 128 272.809 128 277.444M139.395 257.475C137.707 258.841 133.732 262.003 131.338 263.728C128.345 265.884 128 264.59 128 262.65M128 277.444V262.65M128 277.444V326.254M128 326.254C128.576 330.206 130.667 338.183 132.489 340.268C134.561 342.64 138.129 346.952 157.121 347.167C172.315 347.34 203.662 347.239 217.436 347.167H224.232C227.603 347.167 230.612 345.793 231.366 342.508C232.232 338.739 232.975 332.361 232.975 322.157M128 326.254V330C128 340.493 136.507 349 147 349H213.975C224.468 349 232.975 340.491 232.975 329.998C232.975 326.977 232.975 324.311 232.975 322.157" stroke="#395DF6" stroke-linejoin="round"/>
<path d="M232.975 381.341V368C232.975 357.507 224.468 349 213.975 349H146.65C136.35 349 128 357.35 128 367.65V367.65M232.975 381.341C233.167 373.723 232.353 357.754 227.565 354.821C221.579 351.156 219.277 350.509 215.479 350.401C212.44 350.315 178.224 350.366 161.495 350.401C159.193 350.653 153.691 351.76 150.1 354.175M232.975 381.341V427.157M150.1 354.175C145.611 357.193 141.697 360.613 139.395 362.475M150.1 354.175C151.098 352.917 152.494 349 150.1 349M139.395 362.475C138.473 363.221 138.542 365.812 139.014 368.384C139.384 370.393 136.568 373.104 134.897 374.278V374.278C133.515 375.248 128 377.809 128 382.444M139.395 362.475C137.707 363.841 133.732 367.003 131.338 368.728C128.345 370.884 128 369.59 128 367.65M128 382.444V367.65M128 382.444V431.254M128 431.254C128.576 435.206 130.667 443.183 132.489 445.268C134.561 447.64 138.129 451.952 157.121 452.167C172.315 452.34 203.662 452.239 217.436 452.167H224.232C227.603 452.167 230.612 450.793 231.366 447.508C232.232 443.739 232.975 437.361 232.975 427.157M128 431.254V435C128 445.493 136.507 454 147 454H213.975C224.468 454 232.975 445.491 232.975 434.998C232.975 431.977 232.975 429.311 232.975 427.157" stroke="#395DF6" stroke-linejoin="round"/>
<g filter="url(#filter0_f_320_400)">
<path d="M356.65 244H360.1H423.975C429.44 244 434.367 246.308 437.834 250.003C438.49 250.486 439.067 251.223 439.575 252.151C441.718 255.227 442.975 258.967 442.975 263V272.005C443.011 273.613 443.006 275.089 442.975 276.341V322.157V329.998C442.975 331.357 442.832 332.683 442.561 333.961C442.263 337.693 441.832 340.479 441.366 342.508C440.612 345.793 437.603 347.167 434.232 347.167H432.126C429.656 348.342 426.892 349 423.975 349H357C346.507 349 338 340.493 338 330V326.254V277.444V262.65C338 252.35 346.35 244 356.65 244Z" fill="#395DF6" fill-opacity="0.8"/>
</g>
<g filter="url(#filter1_f_320_400)">
<path d="M356.65 349H360.1H423.975C429.44 349 434.367 351.308 437.834 355.003C438.49 355.486 439.067 356.223 439.575 357.151C441.718 360.227 442.975 363.967 442.975 368V377.005C443.011 378.613 443.006 380.089 442.975 381.341V427.157V434.998C442.975 436.357 442.832 437.683 442.561 438.961C442.263 442.693 441.832 445.479 441.366 447.508C440.612 450.793 437.603 452.167 434.232 452.167H432.126C429.656 453.342 426.892 454 423.975 454H357C346.507 454 338 445.493 338 435V431.254V382.444V367.65C338 357.35 346.35 349 356.65 349Z" fill="#395DF6" fill-opacity="0.8"/>
</g>
<g filter="url(#filter2_f_320_400)">
<path d="M462.306 349H465.756H529.631C535.097 349 540.023 351.308 543.49 355.003C544.146 355.486 544.723 356.223 545.231 357.151C547.374 360.227 548.631 363.967 548.631 368V377.005C548.667 378.613 548.662 380.089 548.631 381.341V427.157V434.998C548.631 436.357 548.488 437.683 548.217 438.961C547.919 442.693 547.488 445.479 547.022 447.508C546.268 450.793 543.259 452.167 539.889 452.167H537.782C535.312 453.342 532.548 454 529.631 454H462.656C452.163 454 443.656 445.493 443.656 435V431.254V382.444V367.65C443.656 357.35 452.006 349 462.306 349Z" fill="#395DF6" fill-opacity="0.8"/>
</g>
<g filter="url(#filter3_f_320_400)">
<path d="M462.306 244H465.756H529.631C535.097 244 540.023 246.308 543.49 250.003C544.146 250.486 544.723 251.223 545.231 252.151C547.374 255.227 548.631 258.967 548.631 263V272.005C548.667 273.613 548.662 275.089 548.631 276.341V322.157V329.998C548.631 331.357 548.488 332.683 548.217 333.961C547.919 337.693 547.488 340.479 547.022 342.508C546.268 345.793 543.259 347.167 539.889 347.167H537.782C535.312 348.342 532.548 349 529.631 349H462.656C452.163 349 443.656 340.493 443.656 330V326.254V277.444V262.65C443.656 252.35 452.006 244 462.306 244Z" fill="#395DF6" fill-opacity="0.8"/>
</g>
<g filter="url(#filter4_f_320_400)">
<path d="M356.65 139H360.1H423.975C429.44 139 434.367 141.308 437.834 145.003C438.49 145.486 439.067 146.223 439.575 147.151C441.718 150.227 442.975 153.967 442.975 158V167.005C443.011 168.613 443.006 170.089 442.975 171.341V217.157V224.998C442.975 226.357 442.832 227.683 442.561 228.961C442.263 232.693 441.832 235.479 441.366 237.508C440.612 240.793 437.603 242.167 434.232 242.167H432.126C429.656 243.342 426.892 244 423.975 244H357C346.507 244 338 235.493 338 225V221.254V172.444V157.65C338 147.35 346.35 139 356.65 139Z" fill="#395DF6" fill-opacity="0.8"/>
</g>
<g filter="url(#filter5_f_320_400)">
<path d="M146.65 139H150.1H213.975C219.44 139 224.367 141.308 227.834 145.003C228.49 145.486 229.067 146.223 229.575 147.151C231.718 150.227 232.975 153.967 232.975 158V167.005C233.011 168.613 233.006 170.089 232.975 171.341V217.157V224.998C232.975 226.357 232.832 227.683 232.561 228.961C232.263 232.693 231.832 235.479 231.366 237.508C230.612 240.793 227.603 242.167 224.232 242.167H222.126C219.656 243.342 216.892 244 213.975 244H147C136.507 244 128 235.493 128 225V221.254V172.444V157.65C128 147.35 136.35 139 146.65 139Z" fill="#395DF6" fill-opacity="0.8"/>
</g>
<g filter="url(#filter6_f_320_400)">
<path d="M251.65 34H255.1H318.975C324.44 34 329.367 36.308 332.834 40.0025C333.49 40.4862 334.067 41.2225 334.575 42.1509C336.718 45.2269 337.975 48.9667 337.975 53V62.0054C338.011 63.6127 338.006 65.0895 337.975 66.3409V112.157V119.998C337.975 121.357 337.832 122.683 337.561 123.961C337.263 127.693 336.832 130.479 336.366 132.508C335.612 135.793 332.603 137.167 329.232 137.167H327.126C324.656 138.342 321.892 139 318.975 139H252C241.507 139 233 130.493 233 120V116.254V67.4444V52.6499C233 42.3498 241.35 34 251.65 34Z" fill="#395DF6" fill-opacity="0.8"/>
</g>
<g filter="url(#filter7_f_320_400)">
<path d="M41.6499 244H45.0999H108.975C114.44 244 119.367 246.308 122.834 250.003C123.49 250.486 124.067 251.223 124.575 252.151C126.718 255.227 127.975 258.967 127.975 263V272.005C128.011 273.613 128.006 275.089 127.975 276.341V322.157V329.998C127.975 331.357 127.832 332.683 127.561 333.961C127.263 337.693 126.832 340.479 126.366 342.508C125.612 345.793 122.603 347.167 119.232 347.167H117.126C114.656 348.342 111.892 349 108.975 349H42C31.5066 349 23 340.493 23 330V326.254V277.444V262.65C23 252.35 31.3498 244 41.6499 244Z" fill="#395DF6" fill-opacity="0.8"/>
</g>
<g filter="url(#filter8_f_320_400)">
<path d="M41.6499 349H45.0999H108.975C114.44 349 119.367 351.308 122.834 355.003C123.49 355.486 124.067 356.223 124.575 357.151C126.718 360.227 127.975 363.967 127.975 368V377.005C128.011 378.613 128.006 380.089 127.975 381.341V427.157V434.998C127.975 436.357 127.832 437.683 127.561 438.961C127.263 442.693 126.832 445.479 126.366 447.508C125.612 450.793 122.603 452.167 119.232 452.167H117.126C114.656 453.342 111.892 454 108.975 454H42C31.5066 454 23 445.493 23 435V431.254V382.444V367.65C23 357.35 31.3498 349 41.6499 349Z" fill="#395DF6" fill-opacity="0.8"/>
</g>
<g filter="url(#filter9_f_320_400)">
<path d="M251.65 139H255.1H318.975C324.44 139 329.367 141.308 332.834 145.003C333.49 145.486 334.067 146.223 334.575 147.151C336.718 150.227 337.975 153.967 337.975 158V167.005C338.011 168.613 338.006 170.089 337.975 171.341V217.157V224.998C337.975 226.357 337.832 227.683 337.561 228.961C337.263 232.693 336.832 235.479 336.366 237.508C335.612 240.793 332.603 242.167 329.232 242.167H327.126C324.656 243.342 321.892 244 318.975 244H252C241.507 244 233 235.493 233 225V221.254V172.444V157.65C233 147.35 241.35 139 251.65 139Z" fill="#395DF6" fill-opacity="0.8"/>
</g>
<g filter="url(#filter10_f_320_400)">
<path d="M146.65 244H150.1H213.975C219.44 244 224.367 246.308 227.834 250.003C228.49 250.486 229.067 251.223 229.575 252.151C231.718 255.227 232.975 258.967 232.975 263V272.005C233.011 273.613 233.006 275.089 232.975 276.341V322.157V329.998C232.975 331.357 232.832 332.683 232.561 333.961C232.263 337.693 231.832 340.479 231.366 342.508C230.612 345.793 227.603 347.167 224.232 347.167H222.126C219.656 348.342 216.892 349 213.975 349H147C136.507 349 128 340.493 128 330V326.254V277.444V262.65C128 252.35 136.35 244 146.65 244Z" fill="#395DF6" fill-opacity="0.8"/>
</g>
<g filter="url(#filter11_f_320_400)">
<path d="M146.65 349H150.1H213.975C219.44 349 224.367 351.308 227.834 355.003C228.49 355.486 229.067 356.223 229.575 357.151C231.718 360.227 232.975 363.967 232.975 368V377.005C233.011 378.613 233.006 380.089 232.975 381.341V427.157V434.998C232.975 436.357 232.832 437.683 232.561 438.961C232.263 442.693 231.832 445.479 231.366 447.508C230.612 450.793 227.603 452.167 224.232 452.167H222.126C219.656 453.342 216.892 454 213.975 454H147C136.507 454 128 445.493 128 435V431.254V382.444V367.65C128 357.35 136.35 349 146.65 349Z" fill="#395DF6" fill-opacity="0.8"/>
</g>
<defs>
<filter id="filter0_f_320_400" x="304.4" y="210.4" width="172.2" height="172.2" filterUnits="userSpaceOnUse" color-interpolation-filters="sRGB">
<feFlood flood-opacity="0" result="BackgroundImageFix"/>
<feBlend mode="normal" in="SourceGraphic" in2="BackgroundImageFix" result="shape"/>
<feGaussianBlur stdDeviation="16.8" result="effect1_foregroundBlur_320_400"/>
</filter>
<filter id="filter1_f_320_400" x="304.4" y="315.4" width="172.2" height="172.2" filterUnits="userSpaceOnUse" color-interpolation-filters="sRGB">
<feFlood flood-opacity="0" result="BackgroundImageFix"/>
<feBlend mode="normal" in="SourceGraphic" in2="BackgroundImageFix" result="shape"/>
<feGaussianBlur stdDeviation="16.8" result="effect1_foregroundBlur_320_400"/>
</filter>
<filter id="filter2_f_320_400" x="410.056" y="315.4" width="172.2" height="172.2" filterUnits="userSpaceOnUse" color-interpolation-filters="sRGB">
<feFlood flood-opacity="0" result="BackgroundImageFix"/>
<feBlend mode="normal" in="SourceGraphic" in2="BackgroundImageFix" result="shape"/>
<feGaussianBlur stdDeviation="16.8" result="effect1_foregroundBlur_320_400"/>
</filter>
<filter id="filter3_f_320_400" x="410.056" y="210.4" width="172.2" height="172.2" filterUnits="userSpaceOnUse" color-interpolation-filters="sRGB">
<feFlood flood-opacity="0" result="BackgroundImageFix"/>
<feBlend mode="normal" in="SourceGraphic" in2="BackgroundImageFix" result="shape"/>
<feGaussianBlur stdDeviation="16.8" result="effect1_foregroundBlur_320_400"/>
</filter>
<filter id="filter4_f_320_400" x="304.4" y="105.4" width="172.2" height="172.2" filterUnits="userSpaceOnUse" color-interpolation-filters="sRGB">
<feFlood flood-opacity="0" result="BackgroundImageFix"/>
<feBlend mode="normal" in="SourceGraphic" in2="BackgroundImageFix" result="shape"/>
<feGaussianBlur stdDeviation="16.8" result="effect1_foregroundBlur_320_400"/>
</filter>
<filter id="filter5_f_320_400" x="94.4" y="105.4" width="172.2" height="172.2" filterUnits="userSpaceOnUse" color-interpolation-filters="sRGB">
<feFlood flood-opacity="0" result="BackgroundImageFix"/>
<feBlend mode="normal" in="SourceGraphic" in2="BackgroundImageFix" result="shape"/>
<feGaussianBlur stdDeviation="16.8" result="effect1_foregroundBlur_320_400"/>
</filter>
<filter id="filter6_f_320_400" x="199.4" y="0.400002" width="172.2" height="172.2" filterUnits="userSpaceOnUse" color-interpolation-filters="sRGB">
<feFlood flood-opacity="0" result="BackgroundImageFix"/>
<feBlend mode="normal" in="SourceGraphic" in2="BackgroundImageFix" result="shape"/>
<feGaussianBlur stdDeviation="16.8" result="effect1_foregroundBlur_320_400"/>
</filter>
<filter id="filter7_f_320_400" x="-10.6" y="210.4" width="172.2" height="172.2" filterUnits="userSpaceOnUse" color-interpolation-filters="sRGB">
<feFlood flood-opacity="0" result="BackgroundImageFix"/>
<feBlend mode="normal" in="SourceGraphic" in2="BackgroundImageFix" result="shape"/>
<feGaussianBlur stdDeviation="16.8" result="effect1_foregroundBlur_320_400"/>
</filter>
<filter id="filter8_f_320_400" x="-10.6" y="315.4" width="172.2" height="172.2" filterUnits="userSpaceOnUse" color-interpolation-filters="sRGB">
<feFlood flood-opacity="0" result="BackgroundImageFix"/>
<feBlend mode="normal" in="SourceGraphic" in2="BackgroundImageFix" result="shape"/>
<feGaussianBlur stdDeviation="16.8" result="effect1_foregroundBlur_320_400"/>
</filter>
<filter id="filter9_f_320_400" x="199.4" y="105.4" width="172.2" height="172.2" filterUnits="userSpaceOnUse" color-interpolation-filters="sRGB">
<feFlood flood-opacity="0" result="BackgroundImageFix"/>
<feBlend mode="normal" in="SourceGraphic" in2="BackgroundImageFix" result="shape"/>
<feGaussianBlur stdDeviation="16.8" result="effect1_foregroundBlur_320_400"/>
</filter>
<filter id="filter10_f_320_400" x="94.4" y="210.4" width="172.2" height="172.2" filterUnits="userSpaceOnUse" color-interpolation-filters="sRGB">
<feFlood flood-opacity="0" result="BackgroundImageFix"/>
<feBlend mode="normal" in="SourceGraphic" in2="BackgroundImageFix" result="shape"/>
<feGaussianBlur stdDeviation="16.8" result="effect1_foregroundBlur_320_400"/>
</filter>
<filter id="filter11_f_320_400" x="94.4" y="315.4" width="172.2" height="172.2" filterUnits="userSpaceOnUse" color-interpolation-filters="sRGB">
<feFlood flood-opacity="0" result="BackgroundImageFix"/>
<feBlend mode="normal" in="SourceGraphic" in2="BackgroundImageFix" result="shape"/>
<feGaussianBlur stdDeviation="16.8" result="effect1_foregroundBlur_320_400"/>
</filter>
</defs>
</svg>
