<svg width="611" height="93" viewBox="0 0 611 93" fill="none" xmlns="http://www.w3.org/2000/svg">
<path d="M17.1632 1H129.18H590.853C601.347 1 609.853 9.50659 609.853 20V25.2714C610.061 26.6643 610.036 27.9442 609.853 29.0287V68.7361V72.998C609.853 83.4914 601.347 92 590.853 92H20C9.50658 92 1 83.4934 1 73V72.2864V29.9852V17.1632C1 8.23653 8.23653 1 17.1632 1Z" fill="black"/>
<path d="M609.853 29.0287V20C609.853 9.50659 601.347 1 590.853 1H17.1632C8.23653 1 1 8.23653 1 17.1632V17.1632M609.853 29.0287C610.966 22.4264 606.248 8.58645 578.476 6.04517C543.761 2.86858 530.409 2.30801 508.378 2.21458C490.753 2.13984 292.297 2.18344 195.272 2.21458C181.92 2.43258 150.009 3.39179 129.18 5.4846M609.853 29.0287V68.7361M129.18 5.4846C103.143 8.10062 80.4447 11.0649 67.0926 12.6786M129.18 5.4846C134.965 4.39459 143.066 1 129.18 1M67.0926 12.6786C56.0576 14.0124 69.4888 22.16 77.5 22.9074C70.3789 23.0008 47.409 22.2347 41 22.9074C32.9888 23.7483 1 25.9677 1 29.9852M67.0926 12.6786C57.3011 13.8621 34.2466 16.6027 20.3605 18.0975C3.00281 19.9661 1 18.845 1 17.1632M1 29.9852V17.1632M1 29.9852V72.2864M1 72.2864C4.33801 75.7122 16.4708 82.625 27.0365 84.4322C39.0533 86.4877 59.749 90.2248 169.903 90.4117C258.027 90.5612 439.837 90.474 519.727 90.4117H589C595.951 89.8044 609.853 84.6191 609.853 68.7361M1 72.2864V73C1 83.4934 9.50658 92 20 92H590.853C601.347 92 609.853 83.4914 609.853 72.998C609.853 71.4083 609.853 69.9745 609.853 68.7361" stroke="#395DF6" stroke-linejoin="round"/>
</svg>
