<svg width="83" height="97" viewBox="0 0 83 97" fill="none" xmlns="http://www.w3.org/2000/svg">
<path d="M63.6319 74.4843L63.5717 74.5536L63.5034 74.615C42.6396 93.3905 18.6329 84.8395 13.6118 70.0777C13.5825 69.9916 13.5538 69.9009 13.5259 69.7964C13.2922 68.922 11.7188 62.5782 13.7934 56.0552C14.8435 52.7537 16.831 49.3991 20.3785 46.7183C23.917 44.0441 28.908 42.1151 35.8468 41.4841C39.5608 41.1464 42.4998 44.2058 42.4998 47.7611V62.0369C42.4998 66.0001 48.0494 66.9109 49.3162 63.1557L55.416 45.0744C56.1718 42.8341 58.0844 41.1809 60.4105 40.7573L78.6083 37.4434C82.4389 36.7458 82.4389 31.2542 78.6083 30.5566L60.4205 27.2446C58.0875 26.8197 56.171 25.1581 55.4198 22.9089L49.3196 4.64455C48.0621 0.879761 42.4998 1.78411 42.4998 5.75332V20.8958C42.4998 24.1565 40.1075 26.8044 37.0551 27.4802C27.1144 29.6811 15.9656 34.8938 8.94461 43.1685C5.4505 47.2865 2.98653 52.1506 2.16834 57.7936C1.35013 63.4366 2.1637 69.9561 5.37732 77.4059C10.5519 89.4016 23.2434 95.6878 36.8982 95.2561C50.5212 94.8254 64.8549 87.6872 73.0015 73.11C73.0819 72.966 73.1529 72.807 73.2101 72.6425C74.339 69.3971 70.161 66.9758 67.9063 69.5687L63.6319 74.4843Z" stroke="#395DF6" stroke-width="3"/>
</svg>
